<?xml version="1.0" encoding="UTF-8"?>
<svg version="1.1" xmlns="http://www.w3.org/2000/svg" width="626" height="365">
<path d="M0 0 C206.58 0 413.16 0 626 0 C626 120.45 626 240.9 626 365 C419.42 365 212.84 365 0 365 C0 244.55 0 124.1 0 0 Z " fill="#F8F6F6" transform="translate(0,0)"/>
<path d="M0 0 C3.24796003 2.67956702 4.2055768 5.0861467 4.875 9.125 C5 13 5 13 3 16 C-0.625 16.6875 -0.625 16.6875 -4 17 C-3.731875 17.78375 -3.46375 18.5675 -3.1875 19.375 C-2.795625 20.57125 -2.40375 21.7675 -2 23 C-1.73574219 23.76183594 -1.47148437 24.52367187 -1.19921875 25.30859375 C1.25634422 32.76838458 2.22875187 39.00242938 -0.5 46.5 C-2.43656122 51.82785982 -3.12345936 56.75060986 -1.23828125 62.203125 C1.19046112 67.38700199 3.73596735 71.11407418 9.234375 73.265625 C10.39453125 73.59046875 11.5546875 73.9153125 12.75 74.25 C13.92046875 74.58515625 15.0909375 74.9203125 16.296875 75.265625 C17.63492188 75.62914062 17.63492188 75.62914062 19 76 C19 79 19 79 18 82 C18.60585938 82.10570312 19.21171875 82.21140625 19.8359375 82.3203125 C22 83 22 83 24.625 85.875 C27.83945705 89.27521713 30.91704717 90.08231026 35.359375 91.24609375 C45.93461428 94.26535585 55.23900031 101.08980402 61 110.5 C61.350625 111.1496875 61.70125 111.799375 62.0625 112.46875 C62.9269457 114.18401414 62.9269457 114.18401414 65 115 C66.79470645 119.32916645 67.32068348 123.28124581 67.5625 127.9375 C67.78032784 131.75755498 68.00567673 135.48411568 68.6875 139.25 C68.790625 140.1575 68.89375 141.065 69 142 C68.34 142.66 67.68 143.32 67 144 C66.71779133 146.48460007 66.53425209 148.88304373 66.4375 151.375 C66.11335654 158.57512291 66.11335654 158.57512291 65.47265625 160.9765625 C64.71181026 164.23373789 65 167.65514154 65 171 C85.46 171.33 105.92 171.66 127 172 C127 170.02 127 168.04 127 166 C128.58403524 164.41596476 130.2771638 164.78025065 132.47265625 164.68359375 C133.82133789 164.62075195 133.82133789 164.62075195 135.19726562 164.55664062 C136.14279297 164.51732422 137.08832031 164.47800781 138.0625 164.4375 C139.01189453 164.39431641 139.96128906 164.35113281 140.93945312 164.30664062 C143.29281353 164.20020724 145.64628354 164.09818992 148 164 C148.556875 162.8140625 149.11375 161.628125 149.6875 160.40625 C154.24882999 150.71783586 158.90519824 141.08960474 163.72753906 131.52880859 C166.2089807 126.59734803 168.67340234 121.65735101 171.14102173 116.71896362 C172.60522743 113.788952 174.07022735 110.85933759 175.53515625 107.9296875 C176.09605957 106.79885742 176.65696289 105.66802734 177.23486328 104.50292969 C178.47236942 102.04708762 179.73063101 99.61645284 181.02685547 97.19238281 C181.52082069 96.25182541 181.52082069 96.25182541 182.02476501 95.29226685 C182.94404272 93.54428607 183.8767801 91.80340311 184.81030273 90.06298828 C186.11747664 86.69754526 186.30311228 85.33450732 185 82 C183.56073882 80.2340148 183.56073882 80.2340148 181.640625 78.80078125 C180.94380615 78.23673584 180.2469873 77.67269043 179.52905273 77.09155273 C178.77696533 76.50446533 178.02487793 75.91737793 177.25 75.3125 C176.47793213 74.69383057 175.70586426 74.07516113 174.91040039 73.43774414 C169.43416766 69.06752344 163.88106813 64.79607427 158.3046875 60.5546875 C153.79806359 57.10006577 149.41884245 53.4882375 145.02246094 49.89526367 C140.61462115 46.29786004 136.170168 42.75361608 131.6875 39.25 C130.00367185 37.92823915 128.32037763 36.60580118 126.63720703 35.28320312 C125.53594486 34.42006057 124.43271539 33.55942276 123.32763672 32.70117188 C121.75330463 31.47611988 120.18890232 30.238339 118.625 29 C117.73039062 28.29875 116.83578125 27.5975 115.9140625 26.875 C114.96660156 25.946875 114.96660156 25.946875 114 25 C114 24.01 114 23.02 114 22 C116.988485 22.59476192 118.94330393 23.46089449 121.36328125 25.30078125 C121.99508301 25.77717041 122.62688477 26.25355957 123.27783203 26.74438477 C124.28499268 27.52060181 124.28499268 27.52060181 125.3125 28.3125 C126.01745605 28.84866943 126.72241211 29.38483887 127.44873047 29.93725586 C133.49037251 34.55444023 139.433272 39.29273848 145.3515625 44.06640625 C148.87698898 46.90867592 152.43387969 49.70905775 156 52.5 C160.91476179 56.35150878 165.80961075 60.22688942 170.6875 64.125 C171.31462891 64.62435059 171.94175781 65.12370117 172.58789062 65.63818359 C175.47782326 67.94664238 178.34154011 70.27393752 181.14453125 72.6875 C186.05675035 76.88069387 189.6257984 79.7794082 196 81 C198 83 198 83 198.3125 85.3125 C197.92982956 88.60346579 196.73448189 90.1609232 195 93 C193.49186074 95.85711528 192.05512049 98.74959291 190.61328125 101.640625 C190.19257858 102.48107361 189.77187592 103.32152222 189.33842468 104.18743896 C188.44737019 105.96886856 187.55732223 107.75080191 186.66821289 109.53320312 C185.33709814 112.20070627 184.00181345 114.86608954 182.66601562 117.53125 C178.22707509 126.40598141 173.8543701 135.30411907 169.67121887 144.30267334 C166.58563182 150.93826959 163.30972555 157.47363493 160 164 C161.27617188 164.06058594 162.55234375 164.12117187 163.8671875 164.18359375 C165.53647016 164.26799568 167.20574037 164.35264386 168.875 164.4375 C169.71675781 164.47681641 170.55851563 164.51613281 171.42578125 164.55664062 C172.23144531 164.59853516 173.03710938 164.64042969 173.8671875 164.68359375 C174.98262939 164.73858032 174.98262939 164.73858032 176.12060547 164.79467773 C178 165 178 165 180 166 C180 167.98 180 169.96 180 172 C187.92 172 195.84 172 204 172 C204 179.92 204 187.84 204 196 C16.23 196 -171.54 196 -365 196 C-365 188.08 -365 180.16 -365 172 C-349.655 171.505 -349.655 171.505 -334 171 C-334.99 170.01 -335.98 169.02 -337 168 C-338.07917226 164.76248322 -338.11425601 162.42248229 -338.09765625 159.01953125 C-338.09443359 157.85615234 -338.09121094 156.69277344 -338.08789062 155.49414062 C-338.07951172 154.27919922 -338.07113281 153.06425781 -338.0625 151.8125 C-338.05798828 150.58595703 -338.05347656 149.35941406 -338.04882812 148.09570312 C-338.03703065 145.06375332 -338.02056921 142.03190094 -338 139 C-336.35 139 -334.7 139 -333 139 C-333.33 138.484375 -333.66 137.96875 -334 137.4375 C-336.04399771 132.45525557 -335.06245883 128.18473333 -333.4453125 123.2421875 C-332.39327319 117.94507729 -332.86578107 112.37621384 -333 107 C-331.35 107.66 -329.7 108.32 -328 109 C-327.85884766 107.70255859 -327.85884766 107.70255859 -327.71484375 106.37890625 C-326.92117 102.62738824 -325.57825145 100.18533238 -323.5625 96.9375 C-319.60559871 90.51889394 -317.72242619 85.75125774 -317.375 78.1875 C-317.33632813 77.49462891 -317.29765625 76.80175781 -317.2578125 76.08789062 C-317.16426432 74.39232985 -317.08107636 72.69620288 -317 71 C-311.06599807 76.68149121 -306.35438879 83.47304297 -305.81640625 91.86328125 C-305.70633518 97.16611691 -305.85563824 101.10561705 -308 106 C-308.37593066 107.9924325 -308.71979545 109.9918674 -309 112 C-308.34 112 -307.68 112 -307 112 C-306.82984375 111.46632813 -306.6596875 110.93265625 -306.484375 110.3828125 C-304.56536676 104.4828829 -302.35945761 98.73695531 -300 93 C-299.34 93 -298.68 93 -298 93 C-290.77058386 110.4538761 -293.23664415 121.68046413 -300 139 C-298.35 139 -296.7 139 -295 139 C-294.88374064 143.56228541 -294.81272592 148.12418928 -294.75 152.6875 C-294.71648437 153.98107422 -294.68296875 155.27464844 -294.6484375 156.60742188 C-294.62910156 158.47817383 -294.62910156 158.47817383 -294.609375 160.38671875 C-294.5779541 162.10701294 -294.5779541 162.10701294 -294.54589844 163.86206055 C-295 167 -295 167 -299 172 C-289.1 172 -279.2 172 -269 172 C-269 169.36 -269 166.72 -269 164 C-268.34 164 -267.68 164 -267 164 C-267 159.38 -267 154.76 -267 150 C-264.03 150 -261.06 150 -258 150 C-258 149.34 -258 148.68 -258 148 C-251.73 148 -245.46 148 -239 148 C-239 147.01 -239 146.02 -239 145 C-238.34 145 -237.68 145 -237 145 C-237 145.99 -237 146.98 -237 148 C-235.68 148 -234.36 148 -233 148 C-233 145.69 -233 143.38 -233 141 C-241.25 141 -249.5 141 -258 141 C-258 140.67 -258 140.34 -258 140 C-237.87 140 -217.74 140 -197 140 C-197 143.3 -197 146.6 -197 150 C-196.01 150.33 -195.02 150.66 -194 151 C-205.55 151 -217.1 151 -229 151 C-229 154.63 -229 158.26 -229 162 C-217.45 162 -205.9 162 -194 162 C-194 162.33 -194 162.66 -194 163 C-196.64 163 -199.28 163 -202 163 C-202 163.66 -202 164.32 -202 165 C-213.55 165 -225.1 165 -237 165 C-237 166.65 -237 168.3 -237 170 C-225.12 170 -213.24 170 -201 170 C-201 170.66 -201 171.32 -201 172 C-184.5 171.67 -168 171.34 -151 171 C-151.99 167.7 -152.98 164.4 -154 161 C-155.19659786 156.96098325 -156.38006002 152.91818187 -157.5625 148.875 C-157.86607422 147.84246094 -158.16964844 146.80992187 -158.48242188 145.74609375 C-160.10759256 140.18723106 -161.62537794 134.62576806 -163 129 C-163.309375 127.96875 -163.61875 126.9375 -163.9375 125.875 C-166.45035598 117.17972056 -168.55475354 108.05334475 -169 99 C-168.01 97.515 -168.01 97.515 -167 96 C-163.91987386 95.71398051 -161.04177078 95.62210172 -157.96044922 95.65942383 C-157.02381439 95.65898575 -156.08717957 95.65854767 -155.12216187 95.65809631 C-152.01612741 95.66019181 -148.91062804 95.68355878 -145.8046875 95.70703125 C-143.65520523 95.71262449 -141.50571914 95.71689587 -139.35623169 95.71989441 C-133.69095351 95.73136453 -128.02590502 95.7608504 -122.36071777 95.79400635 C-116.58295805 95.82466054 -110.80516131 95.83838979 -105.02734375 95.85351562 C-93.68479476 95.88571798 -82.34241646 95.9369405 -71 96 C-70.70053467 95.22277588 -70.40106934 94.44555176 -70.0925293 93.64477539 C-67.09144643 86.37980763 -62.02888427 81.29927221 -55 78 C-55.65585189 74.39007621 -55.65585189 74.39007621 -57 71 C-57.04911471 69.35229228 -57.03662828 67.7025279 -56.9921875 66.0546875 C-56.97542969 65.05953125 -56.95867187 64.064375 -56.94140625 63.0390625 C-56.89762331 60.95293427 -56.84572606 58.86695833 -56.78515625 56.78125 C-56.69430101 50.35530645 -57.4648098 45.89154741 -60 40 C-61.39235387 32.29815065 -58.82349773 25.08871064 -54.45703125 18.765625 C-49.97948143 13.31469478 -44.91698211 8.7824184 -37.87109375 7.375 C-33.24781187 6.92713415 -28.70324969 6.89162187 -24.0625 6.9375 C-23.18787109 6.94201172 -22.31324219 6.94652344 -21.41210938 6.95117188 C-19.27470953 6.96285166 -17.13734537 6.98078311 -15 7 C-14.70222656 6.21367187 -14.40445312 5.42734375 -14.09765625 4.6171875 C-11.33500424 -1.96991871 -6.21791055 -1.8402272 0 0 Z " fill="#EAD1C7" transform="translate(391,169)"/>
<path d="M0 0 C3.24796003 2.67956702 4.2055768 5.0861467 4.875 9.125 C5 13 5 13 3 16 C-0.625 16.6875 -0.625 16.6875 -4 17 C-3.731875 17.78375 -3.46375 18.5675 -3.1875 19.375 C-2.5996875 21.169375 -2.5996875 21.169375 -2 23 C-1.73574219 23.76183594 -1.47148437 24.52367187 -1.19921875 25.30859375 C1.25634422 32.76838458 2.22875187 39.00242938 -0.5 46.5 C-2.43656122 51.82785982 -3.12345936 56.75060986 -1.23828125 62.203125 C1.19046112 67.38700199 3.73596735 71.11407418 9.234375 73.265625 C10.39453125 73.59046875 11.5546875 73.9153125 12.75 74.25 C13.92046875 74.58515625 15.0909375 74.9203125 16.296875 75.265625 C17.63492188 75.62914062 17.63492188 75.62914062 19 76 C19 79 19 79 18 82 C18.60585938 82.10570312 19.21171875 82.21140625 19.8359375 82.3203125 C22 83 22 83 24.625 85.875 C27.83945705 89.27521713 30.91704717 90.08231026 35.359375 91.24609375 C47.41083572 94.68682144 56.6234833 102.70450313 62.84375 113.4453125 C68.04332482 124.93356227 66.37501112 137.91737456 64.79980469 150.09301758 C63.86226722 157.41601546 63.49577957 164.56330638 63 172 C-6.63 172 -76.26 172 -148 172 C-148.495 171.01 -148.495 171.01 -149 170 C-115.34 170 -81.68 170 -47 170 C-49.01767058 159.91164712 -51.17462763 150.08434212 -53.875 140.1875 C-54.23040313 138.87216248 -54.5854609 137.5567316 -54.94018555 136.24121094 C-55.95297464 132.49217999 -56.97538289 128.74581678 -58 125 C-58.2666748 124.02305176 -58.53334961 123.04610352 -58.80810547 122.03955078 C-61.10092541 113.65744935 -63.50223433 105.32588558 -66 97 C-98.67 97 -131.34 97 -165 97 C-165 96.67 -165 96.34 -165 96 C-133.98 96 -102.96 96 -71 96 C-70.34 94.35 -69.68 92.7 -69 91 C-65.19480277 85.04622174 -61.40608393 81.00693735 -55 78 C-55.65585189 74.39007621 -55.65585189 74.39007621 -57 71 C-57.04911471 69.35229228 -57.03662828 67.7025279 -56.9921875 66.0546875 C-56.96705078 64.56195313 -56.96705078 64.56195313 -56.94140625 63.0390625 C-56.89762331 60.95293427 -56.84572606 58.86695833 -56.78515625 56.78125 C-56.69430101 50.35530645 -57.4648098 45.89154741 -60 40 C-61.39235387 32.29815065 -58.82349773 25.08871064 -54.45703125 18.765625 C-49.97948143 13.31469478 -44.91698211 8.7824184 -37.87109375 7.375 C-33.24781187 6.92713415 -28.70324969 6.89162187 -24.0625 6.9375 C-23.18787109 6.94201172 -22.31324219 6.94652344 -21.41210938 6.95117188 C-19.27470953 6.96285166 -17.13734537 6.98078311 -15 7 C-14.70222656 6.21367187 -14.40445313 5.42734375 -14.09765625 4.6171875 C-11.33500424 -1.96991871 -6.21791055 -1.8402272 0 0 Z " fill="#FCBB0C" transform="translate(391,169)"/>
<path d="M0 0 C5.93400193 5.68149121 10.64561121 12.47304297 11.18359375 20.86328125 C11.29366482 26.16611691 11.14436176 30.10561705 9 35 C8.62406934 36.9924325 8.28020455 38.9918674 8 41 C8.66 41 9.32 41 10 41 C10.17015625 40.46632813 10.3403125 39.93265625 10.515625 39.3828125 C12.43463324 33.4828829 14.64054239 27.73695531 17 22 C17.66 22 18.32 22 19 22 C26.22941614 39.4538761 23.76335585 50.68046413 17 68 C18.65 68 20.3 68 22 68 C22.11625936 72.56228541 22.18727408 77.12418928 22.25 81.6875 C22.28351563 82.98107422 22.31703125 84.27464844 22.3515625 85.60742188 C22.37089844 87.47817383 22.37089844 87.47817383 22.390625 89.38671875 C22.4220459 91.10701294 22.4220459 91.10701294 22.45410156 92.86206055 C22 96 22 96 18 101 C27.9 101 37.8 101 48 101 C48 98.36 48 95.72 48 93 C48.66 93 49.32 93 50 93 C50 88.38 50 83.76 50 79 C52.97 79 55.94 79 59 79 C59 78.34 59 77.68 59 77 C65.27 77 71.54 77 78 77 C78 76.01 78 75.02 78 74 C78.66 74 79.32 74 80 74 C80 74.99 80 75.98 80 77 C81.32 77 82.64 77 84 77 C84 74.69 84 72.38 84 70 C75.75 70 67.5 70 59 70 C59 69.67 59 69.34 59 69 C79.13 69 99.26 69 120 69 C120 72.3 120 75.6 120 79 C120.99 79.33 121.98 79.66 123 80 C111.45 80 99.9 80 88 80 C88 83.63 88 87.26 88 91 C99.55 91 111.1 91 123 91 C123 91.33 123 91.66 123 92 C120.36 92 117.72 92 115 92 C115 92.66 115 93.32 115 94 C103.45 94 91.9 94 80 94 C80 95.65 80 97.3 80 99 C91.88 99 103.76 99 116 99 C116 99.66 116 100.32 116 101 C116.99 101.33 117.98 101.66 119 102 C119 109.59 119 117.18 119 125 C63.89 125 8.78 125 -48 125 C-48 117.08 -48 109.16 -48 101 C-32.655 100.505 -32.655 100.505 -17 100 C-17.99 99.01 -18.98 98.02 -20 97 C-21.07917226 93.76248322 -21.11425601 91.42248229 -21.09765625 88.01953125 C-21.09443359 86.85615234 -21.09121094 85.69277344 -21.08789062 84.49414062 C-21.07951172 83.27919922 -21.07113281 82.06425781 -21.0625 80.8125 C-21.05798828 79.58595703 -21.05347656 78.35941406 -21.04882812 77.09570312 C-21.03703065 74.06375332 -21.02056921 71.03190094 -21 68 C-19.35 68 -17.7 68 -16 68 C-16.33 67.484375 -16.66 66.96875 -17 66.4375 C-19.04399771 61.45525557 -18.06245883 57.18473333 -16.4453125 52.2421875 C-15.39327319 46.94507729 -15.86578107 41.37621384 -16 36 C-14.35 36.66 -12.7 37.32 -11 38 C-10.85884766 36.70255859 -10.85884766 36.70255859 -10.71484375 35.37890625 C-9.92117 31.62738824 -8.57825145 29.18533238 -6.5625 25.9375 C-2.60559871 19.51889394 -0.72242619 14.75125774 -0.375 7.1875 C-0.33632812 6.49462891 -0.29765625 5.80175781 -0.2578125 5.08789062 C-0.16426432 3.39232985 -0.08107636 1.69620288 0 0 Z " fill="#E0AA8E" transform="translate(74,240)"/>
<path d="M0 0 C1.82345009 -0.35352612 1.82345009 -0.35352612 4.07485962 -0.32279968 C4.92743851 -0.31850952 5.7800174 -0.31421936 6.65843201 -0.30979919 C8.06428307 -0.27959435 8.06428307 -0.27959435 9.49853516 -0.2487793 C10.48393784 -0.23946381 11.46934052 -0.23014832 12.48460388 -0.22055054 C15.75310014 -0.18607946 19.02086963 -0.13020211 22.2890625 -0.07421875 C24.55063311 -0.04619694 26.81222056 -0.01950535 29.07382202 0.00590515 C35.03514684 0.07647513 40.99607107 0.16517567 46.95709229 0.25756836 C53.03636082 0.34861323 59.11583359 0.42262782 65.1953125 0.49804688 C77.13047128 0.64863367 89.06527624 0.81836205 101 1 C101.64026147 2.56995249 102.27743016 4.14116646 102.91333008 5.71289062 C103.26849197 6.58772095 103.62365387 7.46255127 103.98957825 8.3638916 C105.51282303 12.33791369 106.61367924 16.3858098 107.6875 20.5 C107.92807129 21.40564697 108.16864258 22.31129395 108.41650391 23.24438477 C108.96296047 25.30313202 109.50708169 27.36250005 110.04931641 29.42236328 C110.93954984 32.77251242 111.84757769 36.11716185 112.76234436 39.46066284 C113.59862865 42.52175885 114.42713327 45.58493338 115.25454712 48.6484375 C115.66561068 50.1649913 116.07945608 51.68079403 116.4961853 53.19580078 C117.08657838 55.34580938 117.6655546 57.49860983 118.2421875 59.65234375 C118.5810498 60.90007568 118.91991211 62.14780762 119.26904297 63.43334961 C120.01291207 67.06300349 120.05148125 70.3071231 120 74 C106.62237295 74.1157039 93.24486437 74.20461911 79.86683941 74.25906086 C73.65526887 74.28518647 67.44403992 74.32063944 61.23266602 74.37719727 C55.24153588 74.43141004 49.25073487 74.46139819 43.25937843 74.47438622 C40.97032296 74.48364532 38.68128607 74.50172563 36.39237022 74.52865028 C33.1930648 74.56479689 29.9951301 74.56995124 26.7956543 74.56762695 C25.36714394 74.59459152 25.36714394 74.59459152 23.90977478 74.62210083 C21.50241275 74.60309886 19.34370506 74.54915099 17 74 C14.10281632 70.67785113 13.20718236 66.88371465 12.02734375 62.66796875 C11.51397461 60.85135742 11.51397461 60.85135742 10.99023438 58.99804688 C10.64283203 57.74056641 10.29542969 56.48308594 9.9375 55.1875 C9.58623047 53.94162109 9.23496094 52.69574219 8.87304688 51.41210938 C7.15637119 45.29503249 5.51512749 39.16977396 4 33 C3.690625 31.96875 3.38125 30.9375 3.0625 29.875 C0.54964402 21.17972056 -1.55475354 12.05334475 -2 3 C-1.34 2.01 -0.68 1.02 0 0 Z " fill="#B5B6C0" transform="translate(224,265)"/>
<path d="M0 0 C12.01471262 1.23227822 22.63338625 8.61521844 30.2734375 17.625 C39.4104142 30.19351094 37.69159878 45.48652296 35.79956055 60.09228516 C34.86316084 67.41574363 34.49581184 74.56282239 34 82 C-35.63 82 -105.26 82 -177 82 C-177.495 81.01 -177.495 81.01 -178 80 C-144.34 80 -110.68 80 -76 80 C-78.01767058 69.91164712 -80.17462763 60.08434212 -82.875 50.1875 C-83.23040313 48.87216248 -83.5854609 47.5567316 -83.94018555 46.24121094 C-84.95297464 42.49217999 -85.97538289 38.74581678 -87 35 C-87.40001221 33.53457764 -87.40001221 33.53457764 -87.80810547 32.03955078 C-90.10092541 23.65744935 -92.50223433 15.32588558 -95 7 C-127.67 7 -160.34 7 -194 7 C-194 6.67 -194 6.34 -194 6 C-181.03071734 5.95369538 -168.0614543 5.9181403 -155.09210587 5.89637566 C-149.07016331 5.88593066 -143.04827723 5.87175832 -137.02636719 5.84912109 C-131.21680901 5.82741836 -125.40730523 5.81543677 -119.59770966 5.81024551 C-117.3793019 5.80654515 -115.16089717 5.79931942 -112.94251251 5.78853989 C-109.83953883 5.77405925 -106.736791 5.77202064 -103.63378906 5.77294922 C-102.25274994 5.76216339 -102.25274994 5.76216339 -100.84381104 5.75115967 C-99.99689697 5.753909 -99.14998291 5.75665833 -98.27740479 5.75949097 C-97.54365757 5.75764738 -96.80991035 5.75580379 -96.05392838 5.75390434 C-93.59445711 6.04859096 -92.05645253 6.61431506 -90 8 C-89.0446049 10.8484928 -88.34221886 13.45273973 -87.75 16.375 C-87.57726562 17.14328125 -87.40453125 17.9115625 -87.2265625 18.703125 C-86.44514525 22.28772157 -86 25.29201069 -86 29 C-85.34 29 -84.68 29 -84 29 C-83.83564453 29.87398438 -83.83564453 29.87398438 -83.66796875 30.765625 C-82.04592005 39.15280365 -80.02745634 47.40728798 -77.6953125 55.625 C-77.46755127 56.43001953 -77.23979004 57.23503906 -77.00512695 58.06445312 C-76.5503712 59.66355195 -76.09072574 61.26126992 -75.62573242 62.85742188 C-75.41537354 63.59541016 -75.20501465 64.33339844 -74.98828125 65.09375 C-74.79790283 65.75052734 -74.60752441 66.40730469 -74.41137695 67.08398438 C-74 69 -74 69 -74 73 C-65.42 73 -56.84 73 -48 73 C-48 71.35 -48 69.7 -48 68 C-42.35357145 62.47904764 -38.37957 61.77565992 -30.8046875 61.8359375 C-27.25146579 62.04378612 -22.643973 62.356027 -20 65 C-19.92794489 66.68608966 -19.91613932 68.37500659 -19.9375 70.0625 C-19.94652344 70.98160156 -19.95554687 71.90070313 -19.96484375 72.84765625 C-19.98224609 73.91306641 -19.98224609 73.91306641 -20 75 C-21.65 75 -23.3 75 -25 75 C-25 76.65 -25 78.3 -25 80 C-22.36 80 -19.72 80 -17 80 C-17 79.01 -17 78.02 -17 77 C-16.17387207 76.89977539 -15.34774414 76.79955078 -14.49658203 76.69628906 C-11.38264476 76.31189541 -8.27056084 75.91526685 -5.15917969 75.51074219 C-3.16978162 75.25574013 -1.17864383 75.01442911 0.8125 74.7734375 C13.37990873 73.4789628 13.37990873 73.4789628 23.74243164 67.03686523 C26.90466975 61.91503403 25.34886586 53.94232317 24.25 48.25 C23.34434953 44.73982368 21.98510866 41.62735717 20.265625 38.42578125 C18.91515757 35.83738534 17.69002995 33.20144229 16.47314453 30.5480957 C12.26097859 21.36376712 7.47943665 12.70453614 2.234375 4.06640625 C1 2 1 2 0 0 Z " fill="#D44235" transform="translate(420,259)"/>
<path d="M0 0 C3.24796003 2.67956702 4.2055768 5.0861467 4.875 9.125 C5 13 5 13 3 16 C-0.625 16.6875 -0.625 16.6875 -4 17 C-3.731875 17.78375 -3.46375 18.5675 -3.1875 19.375 C-2.5996875 21.169375 -2.5996875 21.169375 -2 23 C-1.60361328 24.14275391 -1.60361328 24.14275391 -1.19921875 25.30859375 C1.25634422 32.76838458 2.22875187 39.00242938 -0.5 46.5 C-2.43656122 51.82785982 -3.12345936 56.75060986 -1.23828125 62.203125 C1.19046112 67.38700199 3.73596735 71.11407418 9.234375 73.265625 C10.39453125 73.59046875 11.5546875 73.9153125 12.75 74.25 C13.92046875 74.58515625 15.0909375 74.9203125 16.296875 75.265625 C17.63492188 75.62914062 17.63492188 75.62914062 19 76 C19 79.54540188 18.40614728 80.06007364 16.125 82.625 C15.32449219 83.54152344 15.32449219 83.54152344 14.5078125 84.4765625 C11.76950177 87.2432495 9.4071208 87.27370737 5.625 87.4375 C-1.51526704 87.38588361 -7.16448753 85.05146272 -13 81 C-17.41799447 76.12053693 -18.16695941 72.68542602 -18.25 66.1875 C-18.27578125 64.98480469 -18.3015625 63.78210938 -18.328125 62.54296875 C-17.96927333 58.66822518 -17.02328654 56.30063853 -15 53 C-13.9171875 52.2575 -13.9171875 52.2575 -12.8125 51.5 C-12.214375 51.005 -11.61625 50.51 -11 50 C-10.66602213 46.87413125 -10.66602213 46.87413125 -11 44 C-11.556875 43.938125 -12.11375 43.87625 -12.6875 43.8125 C-15 43 -15 43 -17.3125 40.5625 C-20.9908399 37.05524567 -24.45999229 36.36402687 -29.42578125 35.65234375 C-35.7715701 34.66051332 -39.68969219 32.85074395 -44 28 C-44.33 27.34 -44.66 26.68 -45 26 C-45.53625 26.78375 -46.0725 27.5675 -46.625 28.375 C-49 31 -49 31 -55 33 C-55 38.61 -55 44.22 -55 50 C-59.54701259 43.93731655 -60.9492461 38.46179532 -60 31 C-57.45031331 21.15240771 -51.66747093 14.30151708 -43.1875 8.91015625 C-37.1772122 6.40944722 -30.45652818 6.87428908 -24.0625 6.9375 C-23.18787109 6.94201172 -22.31324219 6.94652344 -21.41210938 6.95117188 C-19.27470953 6.96285166 -17.13734537 6.98078311 -15 7 C-14.70222656 6.21367187 -14.40445313 5.42734375 -14.09765625 4.6171875 C-11.33500424 -1.96991871 -6.21791055 -1.8402272 0 0 Z " fill="#412328" transform="translate(391,169)"/>
<path d="M0 0 C0.5775 0.763125 1.155 1.52625 1.75 2.3125 C6.5034875 7.99027673 10.97699714 8.75664217 18.06835938 9.640625 C23.28830962 10.44294163 25.57398218 12.06779577 29 16 C29.9075 16.474375 30.815 16.94875 31.75 17.4375 C34 19 34 19 35 22 C35 25 35 25 33.6875 26.875 C32 28 32 28 30 28 C27.32007959 35.04283082 26.59216429 42.98405841 28.65234375 50.32421875 C30.9975791 54.96436252 34.50562108 56.8392409 39 59 C39 59.33 39 59.66 39 60 C38.113125 60.2475 37.22625 60.495 36.3125 60.75 C32.89010406 62.04147017 30.7852561 63.67895325 28 66 C27.34 66 26.68 66 26 66 C26 66.66 26 67.32 26 68 C17.58176728 70.40520935 10.97644526 71.22282396 3 67 C1.28515625 65.70703125 1.28515625 65.70703125 0 64 C-0.109375 61.625 -0.109375 61.625 0.25 59 C0.35828125 58.13375 0.4665625 57.2675 0.578125 56.375 C1 54 1 54 2 51 C1.34 50.67 0.68 50.34 0 50 C2.64 49.67 5.28 49.34 8 49 C8 48.01 8 47.02 8 46 C7.13375 45.9175 6.2675 45.835 5.375 45.75 C0.92075152 44.76016701 -2.53063447 43.17189047 -5.16015625 39.28515625 C-6.13203704 37.53724897 -7.06721291 35.76907896 -8 34 C-8.52505127 33.54028809 -9.05010254 33.08057617 -9.59106445 32.60693359 C-12.55383646 29.22780253 -11.33623517 23.87308511 -11.1875 19.625 C-11.19330078 18.5834375 -11.19910156 17.541875 -11.20507812 16.46875 C-10.95923887 8.92967956 -10.95923887 8.92967956 -8.20947266 6.26464844 C-6.05078125 4.9609375 -6.05078125 4.9609375 -3.90356445 3.97802734 C-1.66335001 3.02215937 -1.66335001 3.02215937 0 0 Z " fill="#F1927F" transform="translate(346,194)"/>
<path d="M0 0 C5.93400193 5.68149121 10.64561121 12.47304297 11.18359375 20.86328125 C11.29366482 26.16611691 11.14436176 30.10561705 9 35 C8.62406934 36.9924325 8.28020455 38.9918674 8 41 C8.66 41 9.32 41 10 41 C10.25523438 40.19949219 10.25523438 40.19949219 10.515625 39.3828125 C12.43463324 33.4828829 14.64054239 27.73695531 17 22 C17.66 22 18.32 22 19 22 C26.3410847 39.72347592 23.73387194 50.20333844 17 68 C6.11 68 -4.78 68 -16 68 C-18.89265609 62.21468783 -18.41163225 58.25192532 -16.4453125 52.2421875 C-15.39327319 46.94507729 -15.86578107 41.37621384 -16 36 C-14.35 36.66 -12.7 37.32 -11 38 C-10.90589844 37.13503906 -10.81179687 36.27007812 -10.71484375 35.37890625 C-9.92117 31.62738824 -8.57825145 29.18533238 -6.5625 25.9375 C-2.60559871 19.51889394 -0.72242619 14.75125774 -0.375 7.1875 C-0.33632812 6.49462891 -0.29765625 5.80175781 -0.2578125 5.08789062 C-0.16426432 3.39232985 -0.08107636 1.69620288 0 0 Z " fill="#61989B" transform="translate(74,240)"/>
<path d="M0 0 C2.988485 0.59476192 4.94330393 1.46089449 7.36328125 3.30078125 C7.99508301 3.77717041 8.62688477 4.25355957 9.27783203 4.74438477 C9.94927246 5.26186279 10.62071289 5.77934082 11.3125 6.3125 C12.01745605 6.84866943 12.72241211 7.38483887 13.44873047 7.93725586 C19.49037251 12.55444023 25.433272 17.29273848 31.3515625 22.06640625 C34.87698898 24.90867592 38.43387969 27.70905775 42 30.5 C46.91476179 34.35150878 51.80961075 38.22688942 56.6875 42.125 C57.31462891 42.62435059 57.94175781 43.12370117 58.58789062 43.63818359 C61.47782326 45.94664238 64.34154011 48.27393752 67.14453125 50.6875 C72.05675035 54.88069387 75.6257984 57.7794082 82 59 C84 61 84 61 84.3125 63.3125 C83.92982956 66.60346579 82.73448189 68.1609232 81 71 C79.49186074 73.85711528 78.05512049 76.74959291 76.61328125 79.640625 C76.19257858 80.48107361 75.77187592 81.32152222 75.33842468 82.18743896 C74.44737019 83.96886856 73.55732223 85.75080191 72.66821289 87.53320312 C71.33709814 90.20070627 70.00181345 92.86608954 68.66601562 95.53125 C64.22707509 104.40598141 59.8543701 113.30411907 55.67121887 122.30267334 C52.58563182 128.93826959 49.30972555 135.47363493 46 142 C47.28777344 142.06058594 48.57554687 142.12117187 49.90234375 142.18359375 C51.58074159 142.26798247 53.25912636 142.3526313 54.9375 142.4375 C55.78763672 142.47681641 56.63777344 142.51613281 57.51367188 142.55664062 C58.32255859 142.59853516 59.13144531 142.64042969 59.96484375 142.68359375 C61.08814087 142.73858032 61.08814087 142.73858032 62.23413086 142.79467773 C64 143 64 143 65 144 C65 145.98 65 147.96 65 150 C47.84 150 30.68 150 13 150 C13 144 13 144 14 143 C15.48638992 142.84344973 16.97949127 142.74933057 18.47265625 142.68359375 C19.82133789 142.62075195 19.82133789 142.62075195 21.19726562 142.55664062 C22.14279297 142.51732422 23.08832031 142.47800781 24.0625 142.4375 C25.01189453 142.39431641 25.96128906 142.35113281 26.93945312 142.30664062 C29.29281353 142.20020724 31.64628354 142.09818992 34 142 C34.8353125 140.22109375 34.8353125 140.22109375 35.6875 138.40625 C40.24882999 128.71783586 44.90519824 119.08960474 49.72753906 109.52880859 C52.2089807 104.59734803 54.67340234 99.65735101 57.14102173 94.71896362 C58.60522743 91.788952 60.07022735 88.85933759 61.53515625 85.9296875 C62.09605957 84.79885742 62.65696289 83.66802734 63.23486328 82.50292969 C64.47236942 80.04708762 65.73063101 77.61645284 67.02685547 75.19238281 C67.35616562 74.56534454 67.68547577 73.93830627 68.02476501 73.29226685 C68.94404272 71.54428607 69.8767801 69.80340311 70.81030273 68.06298828 C72.11747664 64.69754526 72.30311228 63.33450732 71 60 C69.56073882 58.2340148 69.56073882 58.2340148 67.640625 56.80078125 C66.59539673 55.95471313 66.59539673 55.95471313 65.52905273 55.09155273 C64.77696533 54.50446533 64.02487793 53.91737793 63.25 53.3125 C62.47793213 52.69383057 61.70586426 52.07516113 60.91040039 51.43774414 C55.43416766 47.06752344 49.88106813 42.79607427 44.3046875 38.5546875 C39.79806359 35.10006577 35.41884245 31.4882375 31.02246094 27.89526367 C26.61462115 24.29786004 22.170168 20.75361608 17.6875 17.25 C16.00367185 15.92823915 14.32037763 14.60580118 12.63720703 13.28320312 C11.53594486 12.42006057 10.43271539 11.55942276 9.32763672 10.70117188 C7.75330463 9.47611988 6.18890232 8.238339 4.625 7 C3.73039062 6.29875 2.83578125 5.5975 1.9140625 4.875 C1.28242188 4.25625 0.65078125 3.6375 0 3 C0 2.01 0 1.02 0 0 Z " fill="#3B4045" transform="translate(505,191)"/>
<path d="M0 0 C20.13 0 40.26 0 61 0 C61 3.3 61 6.6 61 10 C61.99 10.33 62.98 10.66 64 11 C52.45 11 40.9 11 29 11 C29 14.63 29 18.26 29 22 C40.55 22 52.1 22 64 22 C64 22.33 64 22.66 64 23 C61.36 23 58.72 23 56 23 C56 23.66 56 24.32 56 25 C44.45 25 32.9 25 21 25 C21 26.65 21 28.3 21 30 C32.55 30 44.1 30 56 30 C56 30.66 56 31.32 56 32 C34.22 32 12.44 32 -10 32 C-9.67 24.74 -9.34 17.48 -9 10 C-6.03 10 -3.06 10 0 10 C0 9.34 0 8.68 0 8 C6.27 8 12.54 8 19 8 C19 7.01 19 6.02 19 5 C19.66 5 20.32 5 21 5 C21 5.99 21 6.98 21 8 C22.32 8 23.64 8 25 8 C25 5.69 25 3.38 25 1 C16.75 1 8.5 1 0 1 C0 0.67 0 0.34 0 0 Z " fill="#E75643" transform="translate(133,309)"/>
<path d="M0 0 C14.19 0 28.38 0 43 0 C43.12375 4.516875 43.2475 9.03375 43.375 13.6875 C43.42962402 15.10377686 43.48424805 16.52005371 43.54052734 17.97924805 C43.65986501 26.93406421 43.65986501 26.93406421 40.91796875 31.36328125 C35.98289139 34.32272442 29.55310641 33.66104383 24.00463867 33.54199219 C21.93897434 33.50002995 19.87656703 33.50093804 17.81054688 33.5078125 C6.33565993 33.39492625 6.33565993 33.39492625 2 30 C-0.32688112 26.76525951 -0.23361298 23.82852348 -0.1953125 19.921875 C-0.19031738 18.87612305 -0.18532227 17.83037109 -0.18017578 16.75292969 C-0.16196777 15.43196289 -0.14375977 14.11099609 -0.125 12.75 C-0.08375 8.5425 -0.0425 4.335 0 0 Z " fill="#E55945" transform="translate(53,308)"/>
<path d="M0 0 C3.26187504 1.58911861 5.17966723 3.34908166 7.4375 6.1875 C7.75 9 7.75 9 7.4375 11.1875 C6.695 10.73375 5.9525 10.28 5.1875 9.8125 C2.96819422 8.50109204 0.75782178 7.30469197 -1.5625 6.1875 C-0.331106 9.88168201 1.64541354 11.53859746 4.4375 14.1875 C3.7775 14.8475 3.1175 15.5075 2.4375 16.1875 C2.18021246 18.95918852 2.01684824 21.66031158 1.9375 24.4375 C1.78293752 29.73808391 1.41477031 34.18054131 -0.5625 39.1875 C-1.2225 39.1875 -1.8825 39.1875 -2.5625 39.1875 C-2.81 39.93 -3.0575 40.6725 -3.3125 41.4375 C-4.68745599 44.46240317 -5.92462327 46.17030015 -8.5625 48.1875 C-11.97257928 47.82854429 -13.53228321 46.53089002 -15.8125 44.0625 C-18.24660633 41.51986663 -20.71199554 39.11505739 -23.375 36.8125 C-26.58012275 34.04016291 -29.77059901 31.2535357 -32.9375 28.4375 C-34.18660156 27.33148438 -34.18660156 27.33148438 -35.4609375 26.203125 C-37.5625 24.1875 -37.5625 24.1875 -39.5625 21.1875 C-38.56075761 19.59201972 -37.53499974 18.01160949 -36.5 16.4375 C-35.93152344 15.55578125 -35.36304688 14.6740625 -34.77734375 13.765625 C-31.64181325 10.11580113 -28.29616586 7.59455208 -23.50317383 6.88085938 C-20.59230149 6.75553154 -17.70270438 6.792618 -14.79101562 6.875 C-10.48431803 6.83869838 -10.48431803 6.83869838 -6.78979492 4.81811523 C-2.3193575 0.16970909 -2.3193575 0.16970909 0 0 Z " fill="#FBBD0E" transform="translate(506.5625,184.8125)"/>
<path d="M0 0 C12.96928266 -0.04630462 25.9385457 -0.0818597 38.90789413 -0.10362434 C44.92983669 -0.11406934 50.95172277 -0.12824168 56.97363281 -0.15087891 C62.78319099 -0.17258164 68.59269477 -0.18456323 74.40229034 -0.18975449 C76.6206981 -0.19345485 78.83910283 -0.20068058 81.05748749 -0.21146011 C84.16046117 -0.22594075 87.263209 -0.22797936 90.36621094 -0.22705078 C91.74725006 -0.23783661 91.74725006 -0.23783661 93.15618896 -0.24884033 C94.00310303 -0.246091 94.85001709 -0.24334167 95.72259521 -0.24050903 C96.45634243 -0.24235262 97.19008965 -0.24419621 97.94607162 -0.24609566 C100.40554289 0.04859096 101.94354747 0.61431506 104 2 C104.9553951 4.8484928 105.65778114 7.45273973 106.25 10.375 C106.42273438 11.14328125 106.59546875 11.9115625 106.7734375 12.703125 C107.55485475 16.28772157 108 19.29201069 108 23 C108.66 23 109.32 23 110 23 C110.16435547 23.87398438 110.16435547 23.87398438 110.33203125 24.765625 C111.95407995 33.15280365 113.97254366 41.40728798 116.3046875 49.625 C116.53244873 50.43001953 116.76020996 51.23503906 116.99487305 52.06445312 C117.4496288 53.66355195 117.90927426 55.26126992 118.37426758 56.85742188 C118.58462646 57.59541016 118.79498535 58.33339844 119.01171875 59.09375 C119.20209717 59.75052734 119.39247559 60.40730469 119.58862305 61.08398438 C120 63 120 63 120 67 C120.85777542 66.99333817 120.85777542 66.99333817 121.73287964 66.98654175 C127.66971342 66.94239049 133.60650078 66.91216788 139.54345703 66.89013672 C141.76092421 66.88006175 143.97837805 66.86640141 146.19580078 66.84912109 C149.37796312 66.82493837 152.55995024 66.81353203 155.7421875 66.8046875 C157.23599442 66.78920364 157.23599442 66.78920364 158.75997925 66.77340698 C160.14118454 66.77318039 160.14118454 66.77318039 161.55029297 66.77294922 C162.3630368 66.768508 163.17578064 66.76406677 164.01315308 66.75949097 C166 67 166 67 168 69 C168 71.31 168 73.62 168 76 C118.17 76 68.34 76 17 76 C16.505 75.01 16.505 75.01 16 74 C49.66 74 83.32 74 118 74 C115.98232942 63.91164712 113.82537237 54.08434212 111.125 44.1875 C110.76959687 42.87216248 110.4145391 41.5567316 110.05981445 40.24121094 C109.04702536 36.49217999 108.02461711 32.74581678 107 29 C106.59998779 27.53457764 106.59998779 27.53457764 106.19189453 26.03955078 C103.89907459 17.65744935 101.49776567 9.32588558 99 1 C66.33 1 33.66 1 0 1 C0 0.67 0 0.34 0 0 Z " fill="#817A7A" transform="translate(226,265)"/>
<path d="M0 0 C0.66 0 1.32 0 2 0 C0.53092251 4.83713782 -1.45977566 9.16826411 -3.74609375 13.65234375 C-4.11344131 14.38147476 -4.48078888 15.11060577 -4.85926819 15.86183167 C-5.643618 17.41816349 -6.42966966 18.97363861 -7.21728516 20.52832031 C-9.26714763 24.57554779 -11.30381981 28.629391 -13.33984375 32.68359375 C-13.74226288 33.48449432 -14.14468201 34.2853949 -14.55929565 35.11056519 C-19.19024669 44.34489151 -23.64978345 53.65894487 -28.04882812 63.00585938 C-29.008009 65.01679094 -29.99739156 67.01041399 -31 69 C-30.34 69 -29.68 69 -29 69 C-28.67 68.34 -28.34 67.68 -28 67 C-27 70 -27 70 -27.9375 72.1875 C-28.288125 72.785625 -28.63875 73.38375 -29 74 C-27.71222656 74.06058594 -26.42445313 74.12117188 -25.09765625 74.18359375 C-23.41925841 74.26798247 -21.74087364 74.3526313 -20.0625 74.4375 C-19.21236328 74.47681641 -18.36222656 74.51613281 -17.48632812 74.55664062 C-16.67744141 74.59853516 -15.86855469 74.64042969 -15.03515625 74.68359375 C-14.2862915 74.72025146 -13.53742676 74.75690918 -12.76586914 74.79467773 C-11 75 -11 75 -10 76 C-10 77.98 -10 79.96 -10 82 C-27.16 82 -44.32 82 -62 82 C-62 76 -62 76 -61 75 C-59.51361008 74.84344973 -58.02050873 74.74933057 -56.52734375 74.68359375 C-55.62822266 74.64169922 -54.72910156 74.59980469 -53.80273438 74.55664062 C-52.85720703 74.51732422 -51.91167969 74.47800781 -50.9375 74.4375 C-49.98810547 74.39431641 -49.03871094 74.35113281 -48.06054688 74.30664062 C-45.70718647 74.20020724 -43.35371646 74.09818992 -41 74 C-40.764021 73.49774902 -40.52804199 72.99549805 -40.28491211 72.47802734 C-35.31799756 61.91836943 -30.27996146 51.4071266 -25 41 C-24.01 41.66 -23.02 42.32 -22 43 C-19.20880803 38.54580414 -16.88667738 33.9011427 -14.55078125 29.19921875 C-14.13330124 28.36284378 -13.71582123 27.52646881 -13.28569031 26.66474915 C-11.95940462 24.00660312 -10.63591511 21.34707618 -9.3125 18.6875 C-8.41099178 16.87946529 -7.50930108 15.07152156 -6.60742188 13.26367188 C-4.40283303 8.8434988 -2.20075002 4.42208555 0 0 Z " fill="#646A76" transform="translate(580,259)"/>
<path d="M0 0 C1 1 1 1 1.09765625 3.28515625 C1.08605469 4.20167969 1.07445312 5.11820312 1.0625 6.0625 C1.05347656 6.98160156 1.04445313 7.90070313 1.03515625 8.84765625 C1.02355469 9.55792969 1.01195312 10.26820313 1 11 C-0.65 11 -2.3 11 -4 11 C-4 12.65 -4 14.3 -4 16 C-1.36 16 1.28 16 4 16 C4 15.01 4 14.02 4 13 C5.23919189 12.84966309 5.23919189 12.84966309 6.50341797 12.69628906 C9.61735524 12.31189541 12.72943916 11.91526685 15.84082031 11.51074219 C17.83021838 11.25574013 19.82135617 11.01442911 21.8125 10.7734375 C31.71210849 9.47348891 39.79115839 8.20884161 47 1 C46.67 6.28 46.34 11.56 46 17 C48.64 17 51.28 17 54 17 C54.33 16.34 54.66 15.68 55 15 C55 15.99 55 16.98 55 18 C35.2 18 15.4 18 -5 18 C-5.33 15.69 -5.66 13.38 -6 11 C-7.58403524 9.41596476 -9.2771638 9.78025065 -11.47265625 9.68359375 C-12.82133789 9.62075195 -12.82133789 9.62075195 -14.19726562 9.55664062 C-15.14279297 9.51732422 -16.08832031 9.47800781 -17.0625 9.4375 C-18.01189453 9.39431641 -18.96128906 9.35113281 -19.93945312 9.30664062 C-22.29281353 9.20020724 -24.64628354 9.09818992 -27 9 C-27.17578125 6.671875 -27.17578125 6.671875 -27 4 C-19.3025007 -3.52644376 -9.79852196 -3.6211929 0 0 Z " fill="#DE6245" transform="translate(399,323)"/>
<path d="M0 0 C0.66 0 1.32 0 2 0 C7.95185798 14.36948569 8.37414358 24.17281687 2.41015625 38.62890625 C1.94480469 39.74136719 1.47945312 40.85382813 1 42 C0.67 42.99 0.34 43.98 0 45 C-1.27875 45.061875 -2.5575 45.12375 -3.875 45.1875 C-4.95394531 45.23970703 -4.95394531 45.23970703 -6.0546875 45.29296875 C-6.69664063 45.19628906 -7.33859375 45.09960938 -8 45 C-11.62310622 39.56534067 -11.41307004 32.28787062 -10.61328125 25.921875 C-10.1434786 23.58952142 -9.62677455 21.29472006 -9 19 C-8.34 19 -7.68 19 -7 19 C-6.82984375 18.46632813 -6.6596875 17.93265625 -6.484375 17.3828125 C-4.56536676 11.4828829 -2.35945761 5.73695531 0 0 Z " fill="#6CA5A8" transform="translate(91,262)"/>
<path d="M0 0 C12.54 0 25.08 0 38 0 C38 0.33 38 0.66 38 1 C26.45 1 14.9 1 3 1 C3 4.63 3 8.26 3 12 C14.55 12 26.1 12 38 12 C38 12.33 38 12.66 38 13 C35.36 13 32.72 13 30 13 C30 13.66 30 14.32 30 15 C18.45 15 6.9 15 -5 15 C-5 16.65 -5 18.3 -5 20 C6.55 20 18.1 20 30 20 C30 20.66 30 21.32 30 22 C8.22 22 -13.56 22 -36 22 C-36 19.36 -36 16.72 -36 14 C-34.35 14 -32.7 14 -31 14 C-31 13.34 -31 12.68 -31 12 C-15.16 12.495 -15.16 12.495 1 13 C0.67 8.71 0.34 4.42 0 0 Z " fill="#9D5249" transform="translate(159,319)"/>
<path d="M0 0 C2.988485 0.59476192 4.94330393 1.46089449 7.36328125 3.30078125 C7.99508301 3.77717041 8.62688477 4.25355957 9.27783203 4.74438477 C9.94927246 5.26186279 10.62071289 5.77934082 11.3125 6.3125 C12.01745605 6.84866943 12.72241211 7.38483887 13.44873047 7.93725586 C19.49037251 12.55444023 25.433272 17.29273848 31.3515625 22.06640625 C34.87698898 24.90867592 38.43387969 27.70905775 42 30.5 C46.9147626 34.35150941 51.8095498 38.22696481 56.6875 42.125 C57.31390381 42.62362549 57.94030762 43.12225098 58.58569336 43.63598633 C61.48978595 45.955219 64.36558873 48.2947193 67.1796875 50.72265625 C68.13101563 51.53605469 69.08234375 52.34945312 70.0625 53.1875 C71.28646484 54.26064453 71.28646484 54.26064453 72.53515625 55.35546875 C75.3865779 57.25792282 77.61740661 57.67106857 81 58 C80.01 58.495 80.01 58.495 79 59 C79.495 61.97 79.495 61.97 80 65 C78.02 65 76.04 65 74 65 C73.68482422 64.16855469 73.68482422 64.16855469 73.36328125 63.3203125 C71.52016388 60.18331617 68.96641431 58.14847322 66.1875 55.875 C65.60782471 55.39272949 65.02814941 54.91045898 64.4309082 54.41357422 C60.06280652 50.80547617 55.59871841 47.33527088 51.08642578 43.90942383 C45.97298282 40.01690856 40.99896988 35.96244533 36.0234375 31.89599609 C31.61524076 28.2984413 27.17135099 24.75273726 22.6875 21.25 C17.53496177 17.22453406 12.44792835 13.13195943 7.40234375 8.97265625 C5.70390234 7.57800111 3.96158342 6.23599114 2.19140625 4.93359375 C1.46824219 4.29550781 0.74507813 3.65742188 0 3 C0 2.01 0 1.02 0 0 Z " fill="#434449" transform="translate(505,191)"/>
<path d="M0 0 C0.33 0 0.66 0 1 0 C1 2.97 1 5.94 1 9 C1.66 9 2.32 9 3 9 C3 8.34 3 7.68 3 7 C4.32 7.66 5.64 8.32 7 9 C6.71125 9.68707031 6.4225 10.37414062 6.125 11.08203125 C5.75375 11.98308594 5.3825 12.88414062 5 13.8125 C4.62875 14.70582031 4.2575 15.59914063 3.875 16.51953125 C2.83366763 19.0331433 2.83366763 19.0331433 3 22 C-8.55 22 -20.1 22 -32 22 C-32 18.37 -32 14.74 -32 11 C-21.44 10.67 -10.88 10.34 0 10 C0 6.7 0 3.4 0 0 Z " fill="#F9F8F3" transform="translate(194,309)"/>
<path d="M0 0 C1 1 1 1 1.09765625 3.28515625 C1.08605469 4.20167969 1.07445312 5.11820312 1.0625 6.0625 C1.05347656 6.98160156 1.04445313 7.90070313 1.03515625 8.84765625 C1.02355469 9.55792969 1.01195312 10.26820313 1 11 C-0.65 11 -2.3 11 -4 11 C-4 12.65 -4 14.3 -4 16 C-1.36 16 1.28 16 4 16 C4.33 15.01 4.66 14.02 5 13 C5 14.65 5 16.3 5 18 C1.7 18 -1.6 18 -5 18 C-5.144375 16.865625 -5.28875 15.73125 -5.4375 14.5625 C-5.61171478 11.19222799 -5.61171478 11.19222799 -7 10 C-8.48638992 9.84344973 -9.97949127 9.74933057 -11.47265625 9.68359375 C-12.82133789 9.62075195 -12.82133789 9.62075195 -14.19726562 9.55664062 C-15.14279297 9.51732422 -16.08832031 9.47800781 -17.0625 9.4375 C-18.01189453 9.39431641 -18.96128906 9.35113281 -19.93945312 9.30664062 C-22.29281353 9.20020724 -24.64628354 9.09818992 -27 9 C-27.17578125 6.671875 -27.17578125 6.671875 -27 4 C-19.3025007 -3.52644376 -9.79852196 -3.6211929 0 0 Z " fill="#F69480" transform="translate(399,323)"/>
<path d="M0 0 C1.43352212 0.00015908 2.86704998 0.00585132 4.30053711 0.01586914 C5.43041298 0.01799156 5.43041298 0.01799156 6.58311462 0.02015686 C8.99807646 0.02577163 11.41294687 0.03832656 13.82788086 0.05102539 C15.46134307 0.05603849 17.09480672 0.06060173 18.72827148 0.06469727 C22.74067671 0.07574585 26.75301326 0.09302033 30.76538086 0.11352539 C30.86303711 6.26586914 30.86303711 6.26586914 30.76538086 8.11352539 C29.76538086 9.11352539 29.76538086 9.11352539 26.53076172 9.22705078 C25.0972396 9.2268917 23.66371173 9.22119946 22.23022461 9.21118164 C21.10034874 9.20905922 21.10034874 9.20905922 19.94764709 9.20689392 C17.53268526 9.20127915 15.11781485 9.18872422 12.70288086 9.17602539 C11.06941865 9.17101229 9.435955 9.16644905 7.80249023 9.16235352 C3.79008501 9.15130493 -0.22225155 9.13403045 -4.23461914 9.11352539 C-4.33227539 2.96118164 -4.33227539 2.96118164 -4.23461914 1.11352539 C-3.23461914 0.11352539 -3.23461914 0.11352539 0 0 Z " fill="#EFB527" transform="translate(163.234619140625,308.886474609375)"/>
<path d="M0 0 C49.5 0 99 0 150 0 C150 0.99 150 1.98 150 3 C149.34048843 2.98747192 148.68097687 2.97494385 148.0014801 2.96203613 C139.92801243 2.81041445 131.85437768 2.66996933 123.78059006 2.53664017 C122.30715027 2.51230072 120.83371324 2.48779378 119.36027908 2.46311569 C99.76784756 2.13638646 80.18123104 1.96103968 60.5859375 2.00390625 C59.19510484 2.00653284 59.19510484 2.00653284 57.77617455 2.00921249 C48.59975133 2.02694742 39.42351414 2.05443652 30.24723816 2.11018467 C26.82449647 2.12924065 23.40175685 2.14060874 19.9789772 2.15031242 C18.3767213 2.15682888 16.77447576 2.16701583 15.17226791 2.18103218 C12.98123155 2.20005354 10.79047251 2.20704422 8.59936523 2.21118164 C7.36693588 2.21863907 6.13450653 2.2260965 4.86473083 2.23377991 C2 2 2 2 0 0 Z " fill="#E4D5D0" transform="translate(244,341)"/>
<path d="M0 0 C2.31 0 4.62 0 7 0 C6 3 6 3 3.9375 4.1875 C3.298125 4.455625 2.65875 4.72375 2 5 C2.495 5.99 2.495 5.99 3 7 C17.52 7 32.04 7 47 7 C47.66 5.35 48.32 3.7 49 2 C50.5625 3.8125 50.5625 3.8125 52 6 C51.67 6.99 51.34 7.98 51 9 C34.5 9 18 9 1 9 C1 8.34 1 7.68 1 7 C-0.47593628 7.05329468 -0.47593628 7.05329468 -1.98168945 7.10766602 C-5.63238961 7.23803909 -9.28330367 7.36119756 -12.93432617 7.48217773 C-14.51447204 7.53554679 -16.09455311 7.59087216 -17.67456055 7.64819336 C-19.94565863 7.73024686 -22.21689686 7.80526189 -24.48828125 7.87890625 C-25.19463211 7.90594131 -25.90098297 7.93297638 -26.6287384 7.96083069 C-29.73867939 8.05545931 -32.01879384 7.99373539 -35 7 C-35 5.35 -35 3.7 -35 2 C-23.45 2 -11.9 2 0 2 C0 1.34 0 0.68 0 0 Z " fill="#F1DED9" transform="translate(189,332)"/>
<path d="M0 0 C20.46 0 40.92 0 62 0 C62 0.66 62 1.32 62 2 C50.12 2.33 38.24 2.66 26 3 C26 5.31 26 7.62 26 10 C24.68 10 23.36 10 22 10 C22 9.01 22 8.02 22 7 C21.34 7 20.68 7 20 7 C20 7.99 20 8.98 20 10 C13.73 10 7.46 10 1 10 C1 10.66 1 11.32 1 12 C-1.97 12 -4.94 12 -8 12 C-8 11.67 -8 11.34 -8 11 C-5.36 11 -2.72 11 0 11 C0 10.01 0 9.02 0 8 C4.95 7.67 9.9 7.34 15 7 C15 6.34 15 5.68 15 5 C14.00419922 5.01740234 14.00419922 5.01740234 12.98828125 5.03515625 C4.21792619 5.12478032 4.21792619 5.12478032 0 4 C0 2.68 0 1.36 0 0 Z " fill="#FAE5BE" transform="translate(132,307)"/>
<path d="M0 0 C3.06748766 3.62952182 5.43540053 7.31822745 7.6875 11.5 C8.28949219 12.6034375 8.89148438 13.706875 9.51171875 14.84375 C10.83487824 17.64982053 11.57294722 19.94799616 12 23 C10.08802961 23.70045456 8.17019565 24.384919 6.25 25.0625 C5.18265625 25.44535156 4.1153125 25.82820313 3.015625 26.22265625 C0.07719958 26.98010011 -1.22348948 27.07151741 -4 26 C-3.86722656 25.27296875 -3.73445313 24.5459375 -3.59765625 23.796875 C-2.46195665 17.33084806 -1.6674247 10.95056375 -1.24609375 4.3984375 C-1 2 -1 2 0 0 Z " fill="#E95C45" transform="translate(411,294)"/>
<path d="M0 0 C0.33 0.66 0.66 1.32 1 2 C2.32 2 3.64 2 5 2 C6.66666667 3.66666667 8.33333333 5.33333333 10 7 C11.32 7 12.64 7 14 7 C14.99 7.33 15.98 7.66 17 8 C17.55353075 20.66970387 17.55353075 20.66970387 14 26 C14.66 26.33 15.32 26.66 16 27 C16.40729228 29.32156597 16.74438677 31.6568787 17 34 C13.70366404 31.8024427 13.48260033 31.23994717 12.25 27.6875 C10.18740242 22.20575028 7.5039819 17.19944022 4.68359375 12.07421875 C2.68682039 8.42813839 0.82949002 4.73215963 -1 1 C-0.67 0.67 -0.34 0.34 0 0 Z " fill="#E5533F" transform="translate(424,262)"/>
<path d="M0 0 C0.33 0 0.66 0 1 0 C1.17015625 0.66386719 1.3403125 1.32773438 1.515625 2.01171875 C3.41801809 9.26380048 3.41801809 9.26380048 8 15 C11.26263455 16.55681617 14.58064354 17.83193739 18 19 C18 19.99 18 20.98 18 22 C12.72 23.32 7.44 24.64 2 26 C-2.52443933 18.08223117 -2.52443933 18.08223117 -2.375 12.4375 C-2.36210937 11.36371094 -2.34921875 10.28992188 -2.3359375 9.18359375 C-1.98705192 5.87729437 -1.16694835 3.10408262 0 0 Z " fill="#421E1C" transform="translate(336,221)"/>
<path d="M0 0 C4.87842914 3.63490799 9.73097037 7.30297998 14.5625 11 C15.12743164 11.43094971 15.69236328 11.86189941 16.27441406 12.3059082 C19.27908003 14.61472444 22.15279849 16.99438638 24.9375 19.5625 C28.13810481 22.10992015 29.96133577 22.80299199 34 23 C33.01 23.495 33.01 23.495 32 24 C32.495 26.97 32.495 26.97 33 30 C31.02 30 29.04 30 27 30 C26.78988281 29.44570312 26.57976563 28.89140625 26.36328125 28.3203125 C24.52018659 25.18335482 21.96639648 23.14849508 19.1875 20.875 C18.61942627 20.40215576 18.05135254 19.92931152 17.46606445 19.44213867 C11.43942786 14.46282149 5.23968984 9.70785109 -1 5 C-0.67 3.35 -0.34 1.7 0 0 Z " fill="#444347" transform="translate(552,226)"/>
<path d="M0 0 C14.52 0 29.04 0 44 0 C44 0.33 44 0.66 44 1 C32.45 1 20.9 1 9 1 C9 2.65 9 4.3 9 6 C20.55 6 32.1 6 44 6 C44 6.66 44 7.32 44 8 C37.8944529 8.02464513 31.78893449 8.04283371 25.68334961 8.05493164 C23.60456844 8.05997288 21.52579084 8.06680574 19.44702148 8.07543945 C16.46597414 8.08751422 13.48497351 8.09323024 10.50390625 8.09765625 C9.10078941 8.10539818 9.10078941 8.10539818 7.66932678 8.11329651 C6.37810158 8.11340981 6.37810158 8.11340981 5.06079102 8.11352539 C4.29912125 8.115746 3.53745148 8.11796661 2.75270081 8.12025452 C1 8 1 8 0 7 C0 4.69 0 2.38 0 0 Z " fill="#7A433A" transform="translate(145,333)"/>
<path d="M0 0 C3.81248426 -0.02887236 7.6249407 -0.04675492 11.4375 -0.0625 C12.52611328 -0.07087891 13.61472656 -0.07925781 14.73632812 -0.08789062 C15.77080078 -0.09111328 16.80527344 -0.09433594 17.87109375 -0.09765625 C18.82943115 -0.10289307 19.78776855 -0.10812988 20.77514648 -0.11352539 C23 0 23 0 24 1 C24 4.96 24 8.92 24 13 C14.43 13 4.86 13 -5 13 C-5 12.67 -5 12.34 -5 12 C4.9 11.505 4.9 11.505 15 11 C14.01 10.34 13.02 9.68 12 9 C11.8125 6.375 11.8125 6.375 12 4 C13.65 3.67 15.3 3.34 17 3 C14.94077598 0.94077598 10.78291876 1.58572421 7.9375 1.4375 C7.17888672 1.39431641 6.42027344 1.35113281 5.63867188 1.30664062 C3.75934562 1.20026367 1.87969756 1.09960066 0 1 C0 0.67 0 0.34 0 0 Z " fill="#E05944" transform="translate(136,319)"/>
<path d="M0 0 C3.26187504 1.58911861 5.17966723 3.34908166 7.4375 6.1875 C7.75 9 7.75 9 7.4375 11.1875 C6.695 10.73375 5.9525 10.28 5.1875 9.8125 C2.96819422 8.50109204 0.75782178 7.30469197 -1.5625 6.1875 C-0.331106 9.88168201 1.64541354 11.53859746 4.4375 14.1875 C3.7775 14.8475 3.1175 15.5075 2.4375 16.1875 C2.03702556 18.51025177 1.6977896 20.84489357 1.4375 23.1875 C1.1075 23.1875 0.7775 23.1875 0.4375 23.1875 C0.42332031 22.59582031 0.40914063 22.00414062 0.39453125 21.39453125 C0.12516836 16.93184335 -0.09998603 14.75674796 -3 11.1875 C-6.37020647 8.55709495 -7.74396135 8.05838768 -11.9140625 8.30859375 C-13.19023437 8.38110352 -13.19023437 8.38110352 -14.4921875 8.45507812 C-15.82636719 8.53918945 -15.82636719 8.53918945 -17.1875 8.625 C-18.0846875 8.67720703 -18.981875 8.72941406 -19.90625 8.78320312 C-22.12534012 8.9130435 -24.34399871 9.04801339 -26.5625 9.1875 C-26.2325 8.5275 -25.9025 7.8675 -25.5625 7.1875 C-24.40492188 7.18492187 -23.24734375 7.18234375 -22.0546875 7.1796875 C-20.51558709 7.14214847 -18.97652533 7.10300067 -17.4375 7.0625 C-16.67695313 7.06507813 -15.91640625 7.06765625 -15.1328125 7.0703125 C-10.68372181 6.91689558 -8.31154298 6.41641463 -5.16796875 3.14453125 C-2.5625 0.1875 -2.5625 0.1875 0 0 Z " fill="#E7AE3D" transform="translate(506.5625,184.8125)"/>
<path d="M0 0 C-0.553775 5.71311206 -2.76678133 10.22953622 -5.25 15.3125 C-5.63285156 16.11623047 -6.01570312 16.91996094 -6.41015625 17.74804688 C-9.07271513 23.28242931 -11.9622611 28.6631505 -15 34 C-16.32 34 -17.64 34 -19 34 C-17.47288175 29.0192451 -15.43062447 24.43531183 -13.1875 19.75 C-12.83220215 19.00363281 -12.4769043 18.25726563 -12.11083984 17.48828125 C-11.40289052 16.00489765 -10.69298104 14.52244769 -9.98095703 13.04101562 C-9.12691947 11.26407335 -8.27966139 9.48387584 -7.43359375 7.703125 C-6.78583984 6.36507813 -6.78583984 6.36507813 -6.125 5 C-5.75632812 4.236875 -5.38765625 3.47375 -5.0078125 2.6875 C-3.63806436 0.39396824 -2.64913081 0 0 0 Z " fill="#393E48" transform="translate(568,294)"/>
<path d="M0 0 C0.66 0.33 1.32 0.66 2 1 C5.02492102 0.83073547 7.99251474 0.38667668 11 0 C10.34 4.29 9.68 8.58 9 13 C8.67 13 8.34 13 8 13 C7.85714286 5.57142857 7.85714286 5.57142857 9 2 C8.0925 2.33 7.185 2.66 6.25 3 C3 4 3 4 -1 4 C-1 5.98 -1 7.96 -1 10 C-2.8125 11.0625 -2.8125 11.0625 -5 12 C-5.99 11.67 -6.98 11.34 -8 11 C-10.19907702 11.51603346 -10.19907702 11.51603346 -12 13 C-12.81171228 15.55519921 -12.81171228 15.55519921 -13 18 C-10.69 18.66 -8.38 19.32 -6 20 C-5.67 23.63 -5.34 27.26 -5 31 C-6.64350079 27.71299843 -7.41321669 25.52069985 -8 22 C-12.455 21.01 -12.455 21.01 -17 20 C-13.96327506 11.6008632 -8.91080664 5.95540332 -1 2 C-0.67 1.34 -0.34 0.68 0 0 Z " fill="#F8BC1C" transform="translate(337,245)"/>
<path d="M0 0 C12.54 0 25.08 0 38 0 C38 0.33 38 0.66 38 1 C26.45 1 14.9 1 3 1 C3 4.63 3 8.26 3 12 C14.55 12 26.1 12 38 12 C38 12.33 38 12.66 38 13 C31.89226537 13.89691835 25.98045216 14.13305622 19.8125 14.09765625 C18.86938965 14.0962413 17.9262793 14.09482635 16.95458984 14.09336853 C13.96969303 14.0878124 10.98487379 14.07526823 8 14.0625 C5.96484484 14.05747932 3.92968849 14.05291741 1.89453125 14.04882812 C-3.07034197 14.03785737 -8.03515787 14.02062339 -13 14 C-13 13.67 -13 13.34 -13 13 C-8.38 13 -3.76 13 1 13 C0.67 8.71 0.34 4.42 0 0 Z " fill="#A0382B" transform="translate(159,319)"/>
<path d="M0 0 C8.91 0 17.82 0 27 0 C26.67 2.97 26.34 5.94 26 9 C37.55 8.67 49.1 8.34 61 8 C61 8.66 61 9.32 61 10 C40.87 10 20.74 10 0 10 C0 9.34 0 8.68 0 8 C6.27 8 12.54 8 19 8 C19 7.01 19 6.02 19 5 C19.66 5 20.32 5 21 5 C21 5.99 21 6.98 21 8 C22.32 8 23.64 8 25 8 C25 5.69 25 3.38 25 1 C16.75 1 8.5 1 0 1 C0 0.67 0 0.34 0 0 Z " fill="#E5954D" transform="translate(133,309)"/>
<path d="M0 0 C0.33 0 0.66 0 1 0 C1 10.23 1 20.46 1 31 C13.375 30.505 13.375 30.505 26 30 C26 30.99 26 31.98 26 33 C16.1 33 6.2 33 -4 33 C-2 29 -2 29 -1 28 C-0.8415735 25.9291528 -0.74875578 23.85321971 -0.68359375 21.77734375 C-0.64169922 20.51728516 -0.59980469 19.25722656 -0.55664062 17.95898438 C-0.51682404 16.61849264 -0.47711186 15.2779978 -0.4375 13.9375 C-0.39431958 12.59308477 -0.35070544 11.2486834 -0.30664062 9.90429688 C-0.20014642 6.6029766 -0.0981354 3.30157764 0 0 Z " fill="#F2D8D0" transform="translate(96,308)"/>
<path d="M0 0 C0.33 0 0.66 0 1 0 C1 2.97 1 5.94 1 9 C1.66 9 2.32 9 3 9 C3 8.34 3 7.68 3 7 C4.32 7.66 5.64 8.32 7 9 C6.34 10.32 5.68 11.64 5 13 C3.95021973 13.02505615 2.90043945 13.0501123 1.81884766 13.07592773 C-2.06881324 13.16996267 -5.95629381 13.2701928 -9.84375 13.37231445 C-11.52762642 13.41567817 -13.21154723 13.4573522 -14.89550781 13.49731445 C-17.31328724 13.55498234 -19.73084295 13.6186865 -22.1484375 13.68359375 C-23.28132706 13.70866249 -23.28132706 13.70866249 -24.43710327 13.73423767 C-28.34739799 13.77555107 -28.34739799 13.77555107 -32 15 C-32 13.68 -32 12.36 -32 11 C-21.44 10.67 -10.88 10.34 0 10 C0 6.7 0 3.4 0 0 Z " fill="#EECECB" transform="translate(194,309)"/>
<path d="M0 0 C10.89 0 21.78 0 33 0 C33 0.99 33 1.98 33 3 C28.56255461 3.05793591 24.12520611 3.09357467 19.6875 3.125 C18.42486328 3.14175781 17.16222656 3.15851563 15.86132812 3.17578125 C14.04858398 3.18544922 14.04858398 3.18544922 12.19921875 3.1953125 C11.08377686 3.20578613 9.96833496 3.21625977 8.8190918 3.22705078 C6 3 6 3 3 1 C3 1.99 3 2.98 3 4 C2.01 4 1.02 4 0 4 C0 2.68 0 1.36 0 0 Z " fill="#FBF7F6" transform="translate(154,335)"/>
<path d="M0 0 C2.475 0.99 2.475 0.99 5 2 C4.690625 2.5775 4.38125 3.155 4.0625 3.75 C2.59476742 6.85813958 2.01892743 9.90433666 1.3515625 13.27734375 C1.11179687 14.48519531 0.87203125 15.69304687 0.625 16.9375 C0.39039063 18.14277344 0.15578125 19.34804687 -0.0859375 20.58984375 C-0.97847152 23.91968221 -1.89909849 26.27296774 -4 29 C-4.99 29 -5.98 29 -7 29 C-6.67 27.68 -6.34 26.36 -6 25 C-5.34 25 -4.68 25 -4 25 C-2.90470825 19.31534531 -2.6811946 13.69503835 -2.48242188 7.92578125 C-2.21652506 2.21652506 -2.21652506 2.21652506 0 0 Z " fill="#F8E4B7" transform="translate(510,199)"/>
<path d="M0 0 C2.31 0 4.62 0 7 0 C7 3.96 7 7.92 7 12 C6.01 12 5.02 12 4 12 C4 12.66 4 13.32 4 14 C2.68 14 1.36 14 0 14 C0 9.38 0 4.76 0 0 Z " fill="#D7584A" transform="translate(124,319)"/>
<path d="M0 0 C0.99 0.33 1.98 0.66 3 1 C3 1.99 3 2.98 3 4 C3.66 4.33 4.32 4.66 5 5 C4.34 6.65 3.68 8.3 3 10 C4.65 9.34 6.3 8.68 8 8 C7.4253379 12.78642607 6.01754357 16.53788787 3.9375 20.875 C3.38964844 22.02742188 2.84179688 23.17984375 2.27734375 24.3671875 C1.85582031 25.23601562 1.43429688 26.10484375 1 27 C0.34 27 -0.32 27 -1 27 C-1.14433384 23.89682244 -1.23760605 21.55534591 -0.00390625 18.671875 C1.15398194 15.59018035 1.23314143 13.21953363 1.1875 9.9375 C1.18105469 8.91527344 1.17460938 7.89304687 1.16796875 6.83984375 C1.02361581 4.39927201 0.69892207 2.33160404 0 0 Z " fill="#E3F2F1" transform="translate(83,254)"/>
<path d="M0 0 C0.66 0 1.32 0 2 0 C2 0.66 2 1.32 2 2 C5.465 1.505 5.465 1.505 9 1 C7.625 2.5 7.625 2.5 6 4 C5.34 4 4.68 4 4 4 C4 9.61 4 15.22 4 21 C-0.61351095 14.84865207 -1.64832506 9.5386635 -1 2 C-0.67 1.34 -0.34 0.68 0 0 Z " fill="#321B1C" transform="translate(332,198)"/>
<path d="M0 0 C1.13308594 -0.02578125 2.26617187 -0.0515625 3.43359375 -0.078125 C6.80392471 0.27531795 8.1223938 0.97176817 10.5625 3.25 C9.56089844 3.20359375 8.55929687 3.1571875 7.52734375 3.109375 C-2.70456692 2.5759395 -2.70456692 2.5759395 -11.4375 7.25 C-12.0975 9.23 -12.7575 11.21 -13.4375 13.25 C-22.0175 13.25 -30.5975 13.25 -39.4375 13.25 C-39.1075 11.93 -38.7775 10.61 -38.4375 9.25 C-38.4375 10.24 -38.4375 11.23 -38.4375 12.25 C-30.5175 12.25 -22.5975 12.25 -14.4375 12.25 C-14.4375 10.6 -14.4375 8.95 -14.4375 7.25 C-13.798125 7.0025 -13.15875 6.755 -12.5 6.5 C-10.23854993 5.45311706 -10.23854993 5.45311706 -9.875 3.1875 C-9.730625 2.548125 -9.58625 1.90875 -9.4375 1.25 C-6.11752061 0.1433402 -3.49443373 0.04759728 0 0 Z " fill="#F3B03C" transform="translate(385.4375,318.75)"/>
<path d="M0 0 C0.66 0 1.32 0 2 0 C3.6513798 4.39253655 4.31951847 8.25881311 4.5625 12.9375 C4.78032784 16.75755498 5.00567673 20.48411568 5.6875 24.25 C5.790625 25.1575 5.89375 26.065 6 27 C5.34 27.66 4.68 28.32 4 29 C3.74421429 31.48228406 3.58011002 33.88687717 3.5 36.375 C3.23591911 44.48383689 3.23591911 44.48383689 1 48 C0.95642392 44.0103676 0.9265693 40.02114024 0.93359375 36.03125 C0.93415771 35.35642578 0.93472168 34.68160156 0.93530273 33.98632812 C1.02042566 31.37289376 1.37192613 28.83155211 1.76953125 26.25 C2.66232272 17.53393414 2.78568139 8.35704417 0 0 Z " fill="#F9CECD" transform="translate(454,284)"/>
<path d="M0 0 C0.33 0 0.66 0 1 0 C1.39063507 1.43333021 1.76198474 2.87192679 2.125 4.3125 C2.33382813 5.11300781 2.54265625 5.91351563 2.7578125 6.73828125 C3 9 3 9 1 12 C1.66 12 2.32 12 3 12 C3.33 14.31 3.66 16.62 4 19 C2.35 19.66 0.7 20.32 -1 21 C-2.39529581 18.20940838 -2.16973354 15.86268312 -2.1875 12.75 C-2.20167969 11.63109375 -2.21585937 10.5121875 -2.23046875 9.359375 C-1.99467313 5.92235416 -1.22846663 3.20469555 0 0 Z " fill="#3C2429" transform="translate(336,221)"/>
<path d="M0 0 C1.32 0.66 2.64 1.32 4 2 C4 5.3 4 8.6 4 12 C2.35 12 0.7 12 -1 12 C-1 13.65 -1 15.3 -1 17 C1.64 17 4.28 17 7 17 C7.33 16.01 7.66 15.02 8 14 C8 15.65 8 17.3 8 19 C4.7 19 1.4 19 -2 19 C-2.33 16.36 -2.66 13.72 -3 11 C-1.68 10.67 -0.36 10.34 1 10 C0.67 6.7 0.34 3.4 0 0 Z " fill="#EFA355" transform="translate(396,322)"/>
<path d="M0 0 C0.66 0.33 1.32 0.66 2 1 C1.2884375 1.6496875 1.2884375 1.6496875 0.5625 2.3125 C-1.23686957 4.02309613 -1.23686957 4.02309613 -2 7 C1.96 7 5.92 7 10 7 C10.33 7.99 10.66 8.98 11 10 C5.39 10 -0.22 10 -6 10 C-6 5 -6 5 -4.6875 3.41796875 C-3.125 2.27864583 -1.5625 1.13932292 0 0 Z " fill="#ED9D5F" transform="translate(378,322)"/>
<path d="M0 0 C0.66 0.33 1.32 0.66 2 1 C1.34 2.98 0.68 4.96 0 7 C-2.475 6.01 -2.475 6.01 -5 5 C-4.67 5.66 -4.34 6.32 -4 7 C-3.56585203 13.65357 -3.71429228 19.71430378 -6 26 C-6.33 26 -6.66 26 -7 26 C-7 18.41 -7 10.82 -7 3 C-4.69 2.01 -2.38 1.02 0 0 Z " fill="#D0E4E3" transform="translate(63,271)"/>
<path d="M0 0 C-0.020625 0.78375 -0.04125 1.5675 -0.0625 2.375 C-0.18684063 4.98114961 -0.18684063 4.98114961 1 7 C-3.62 7 -8.24 7 -13 7 C-11.68 6.67 -10.36 6.34 -9 6 C-9 4.35 -9 2.7 -9 1 C-6.04335481 -0.4783226 -3.25770263 -0.06032783 0 0 Z " fill="#F7A82C" transform="translate(181,311)"/>
<path d="M0 0 C3.875 0.875 3.875 0.875 5 2 C5.3125 4.3125 5.3125 4.3125 5 7 C3.1875 9.3125 3.1875 9.3125 1 11 C0.01 11 -0.98 11 -2 11 C-2 10.34 -2 9.68 -2 9 C-3.65 8.67 -5.3 8.34 -7 8 C-6.34 6.02 -5.68 4.04 -5 2 C-4.34 3.32 -3.68 4.64 -3 6 C-2.67 5.34 -2.34 4.68 -2 4 C-2 4.66 -2 5.32 -2 6 C-1.01 6 -0.02 6 1 6 C1 5.01 1 4.02 1 3 C0.34 2.67 -0.32 2.34 -1 2 C-0.67 1.34 -0.34 0.68 0 0 Z " fill="#25272E" transform="translate(584,250)"/>
<path d="M0 0 C0.99 0.99 1.98 1.98 3 3 C0.36 8.28 -2.28 13.56 -5 19 C-5.66 19 -6.32 19 -7 19 C-6.35083537 12.99522721 -4.14204997 7.599219 -2 2 C-1.34 2 -0.68 2 0 2 C0 1.34 0 0.68 0 0 Z " fill="#424750" transform="translate(583,259)"/>
<path d="M0 0 C2.97922593 -0.02683987 5.95821295 -0.04676037 8.9375 -0.0625 C9.78763672 -0.07087891 10.63777344 -0.07925781 11.51367188 -0.08789062 C12.32255859 -0.09111328 13.13144531 -0.09433594 13.96484375 -0.09765625 C14.7137085 -0.10289307 15.46257324 -0.10812988 16.23413086 -0.11352539 C18 0 18 0 19 1 C19 2.65 19 4.3 19 6 C13.06 6 7.12 6 1 6 C1 5.34 1 4.68 1 4 C6.28 4 11.56 4 17 4 C17 3.01 17 2.02 17 1 C11.39 1 5.78 1 0 1 C0 0.67 0 0.34 0 0 Z " fill="#212230" transform="translate(551,334)"/>
<path d="M0 0 C-0.50512524 6.22987798 -3.32604123 11.45474233 -6 17 C-6.66 16.34 -7.32 15.68 -8 15 C-7.828125 12.7578125 -7.828125 12.7578125 -7.25 10.125 C-7.06953125 9.26132812 -6.8890625 8.39765625 -6.703125 7.5078125 C-6.03059229 5.10911249 -5.28176534 3.1330871 -4 1 C-2 0 -2 0 0 0 Z " fill="#3B4149" transform="translate(568,294)"/>
<path d="M0 0 C0.66 0.33 1.32 0.66 2 1 C-0.475 5.455 -0.475 5.455 -3 10 C-2.4225 10.56589844 -1.845 11.13179687 -1.25 11.71484375 C-0.5075 12.44832031 0.235 13.18179688 1 13.9375 C2.11375 15.03384766 2.11375 15.03384766 3.25 16.15234375 C5 18 5 18 5 19 C1.6549611 19.38229016 0.19132443 19.11305534 -2.75 17.375 C-5.47448644 14.4991532 -5.91815713 12.92845762 -6 9 C-5.0625 6.625 -5.0625 6.625 -4 5 C-3.34 5 -2.68 5 -2 5 C-2 4.01 -2 3.02 -2 2 C-1.34 2 -0.68 2 0 2 C0 1.34 0 0.68 0 0 Z " fill="#FCF1CE" transform="translate(471,197)"/>
<path d="M0 0 C0.495 1.98 0.495 1.98 1 4 C0.13375 3.71125 -0.7325 3.4225 -1.625 3.125 C-2.73875 3.08375 -3.8525 3.0425 -5 3 C-5.88171875 3.97195312 -6.7634375 4.94390625 -7.671875 5.9453125 C-10.10366614 8.52375191 -11.61824371 9.44244208 -15.1640625 9.734375 C-16.65065872 9.76851944 -18.1381932 9.77323136 -19.625 9.75 C-26.11277482 9.6006964 -26.11277482 9.6006964 -32 12 C-32 11.34 -32 10.68 -32 10 C-31.34 10 -30.68 10 -30 10 C-30 9.34 -30 8.68 -30 8 C-24.06 8 -18.12 8 -12 8 C-11.67 6.35 -11.34 4.7 -11 3 C-7.28337238 0.55040452 -4.43633875 -0.39144165 0 0 Z " fill="#F6E7C4" transform="translate(509,183)"/>
<path d="M0 0 C2.05078125 0.03255208 4.1015625 0.06510417 6.15234375 0.09765625 C6.15234375 2.07765625 6.15234375 4.05765625 6.15234375 6.09765625 C2.85234375 6.09765625 -0.44765625 6.09765625 -3.84765625 6.09765625 C-2.77957394 0.14691194 -2.77957394 0.14691194 0 0 Z " fill="#FEC10E" transform="translate(186.84765625,310.90234375)"/>
<path d="M0 0 C0.99 0 1.98 0 3 0 C3 1.65 3 3.3 3 5 C3.66 5 4.32 5 5 5 C5.33 5.99 5.66 6.98 6 8 C6.33 8 6.66 8 7 8 C6.67 14.6 6.34 21.2 6 28 C5.67 28 5.34 28 5 28 C4.87882812 26.91460937 4.75765625 25.82921875 4.6328125 24.7109375 C4.46387531 23.26558596 4.29458575 21.82027558 4.125 20.375 C4.04636719 19.66214844 3.96773438 18.94929688 3.88671875 18.21484375 C3.37297897 13.90733332 2.47885052 10.10261756 1 6 C0.63079809 4.00630969 0.28674418 2.00720923 0 0 Z " fill="#E5612D" transform="translate(441,296)"/>
<path d="M0 0 C0.5775 0.763125 1.155 1.52625 1.75 2.3125 C6.11976597 7.53194268 9.73287729 8.63393688 16.25 9.6875 C17.36761719 9.88182617 17.36761719 9.88182617 18.5078125 10.08007812 C20.33685178 10.39664262 22.16822435 10.69967399 24 11 C24 11.33 24 11.66 24 12 C9.5683207 12.5939868 9.5683207 12.5939868 3 9 C1.6875 6.375 1.6875 6.375 1 4 C0.01 3.67 -0.98 3.34 -2 3 C-1.34 2.01 -0.68 1.02 0 0 Z " fill="#CA8477" transform="translate(346,194)"/>
<path d="M0 0 C6.75 1.625 6.75 1.625 9 5 C9.125 7.6875 9.125 7.6875 9 10 C8.2575 9.54625 7.515 9.0925 6.75 8.625 C4.53069422 7.31359204 2.32032178 6.11719197 0 5 C-0.33 5.99 -0.66 6.98 -1 8 C-1.04241723 5.66705225 -1.04092937 3.33297433 -1 1 C-0.67 0.67 -0.34 0.34 0 0 Z " fill="#DBA03E" transform="translate(505,186)"/>
<path d="M0 0 C0.70125 0.309375 1.4025 0.61875 2.125 0.9375 C5.08936657 2.03302678 7.87698108 2.56422992 11 3 C10.01 3.495 10.01 3.495 9 4 C9.33 5.98 9.66 7.96 10 10 C8.02 10 6.04 10 4 10 C3.71125 9.38125 3.4225 8.7625 3.125 8.125 C2.06279958 5.86674235 2.06279958 5.86674235 0 4 C0 2.68 0 1.36 0 0 Z " fill="#525358" transform="translate(575,246)"/>
<path d="M0 0 C3.70503641 0.60334309 5.85968148 2.22474237 8.75 4.5625 C9.94882812 5.52349609 9.94882812 5.52349609 11.171875 6.50390625 C12.07679688 7.24447266 12.07679688 7.24447266 13 8 C12.67 9.32 12.34 10.64 12 12 C7.73053066 9.25534114 3.7256448 6.45952732 0 3 C0 2.01 0 1.02 0 0 Z " fill="#352F30" transform="translate(505,191)"/>
<path d="M0 0 C2.64 0 5.28 0 8 0 C8.38218767 1.65614657 8.71395102 3.32457024 9 5 C8 6 8 6 6.15234375 6.09765625 C4.1015625 6.06510417 2.05078125 6.03255208 0 6 C0 4.02 0 2.04 0 0 Z " fill="#F9C00C" transform="translate(160,311)"/>
<path d="M0 0 C0.33 0 0.66 0 1 0 C1.09796875 0.86882812 1.1959375 1.73765625 1.296875 2.6328125 C2.43825994 11.53820195 2.43825994 11.53820195 7 19 C7.66 19.99 8.32 20.98 9 22 C8.01 22 7.02 22 6 22 C0.54055257 16.27423806 -1.23438521 11.89183971 -1.16796875 3.98828125 C-1 2 -1 2 0 0 Z " fill="#B2A5A5" transform="translate(389,218)"/>
<path d="M0 0 C2 3 2 3 1.8125 5.3125 C0.87281219 8.42069813 -0.4707351 11.14093953 -2 14 C-2.99 14 -3.98 14 -5 14 C-6 11 -6 11 -5.0390625 8.5546875 C-4.57242188 7.67039062 -4.10578125 6.78609375 -3.625 5.875 C-3.16351562 4.98554688 -2.70203125 4.09609375 -2.2265625 3.1796875 C-1 1 -1 1 0 0 Z " fill="#3F434C" transform="translate(546,320)"/>
<path d="M0 0 C0.061875 0.61875 0.12375 1.2375 0.1875 1.875 C0.455625 2.57625 0.72375 3.2775 1 4 C2.6635479 4.67441131 4.33066942 5.3400321 6 6 C10 10.21621622 10 10.21621622 10 14 C9.34 14 8.68 14 8 14 C6.88625 12.8553125 6.88625 12.8553125 5.75 11.6875 C2.97304795 8.97366049 0.52594801 7.55797703 -3 6 C-2.34 5.34 -1.68 4.68 -1 4 C-0.3574765 1.93125966 -0.3574765 1.93125966 0 0 Z " fill="#C44D5B" transform="translate(377,172)"/>
<path d="M0 0 C5.39490381 0.64225045 9.55985797 2.18957204 13.9375 5.4375 C15 7 15 7 14.6875 9.1875 C14.460625 9.785625 14.23375 10.38375 14 11 C12.2925002 9.71937515 10.62626404 8.38232443 9 7 C9 6.34 9 5.68 9 5 C8.071875 4.9175 7.14375 4.835 6.1875 4.75 C3 4 3 4 1.125 1.9375 C0.75375 1.298125 0.3825 0.65875 0 0 Z " fill="#C04628" transform="translate(420,259)"/>
<path d="M0 0 C5.92820052 7.27551882 7.37344135 15.85068682 7 25 C3.77569134 20.16353702 3.90757097 17.73060016 4 12 C3.34 12 2.68 12 2 12 C0.86235649 7.73383684 0 4.43513689 0 0 Z " fill="#E2B234" transform="translate(332,276)"/>
<path d="M0 0 C2.97 0.33 5.94 0.66 9 1 C10.76615118 5.70973649 11.48594831 10.03083364 12 15 C7.24387473 11.39190497 6.39195405 6.52563577 5 1 C3.35 1 1.7 1 0 1 C0 0.67 0 0.34 0 0 Z " fill="#8D7B53" transform="translate(320,265)"/>
<path d="M0 0 C0.33 0.66 0.66 1.32 1 2 C1.9590625 2.2165625 1.9590625 2.2165625 2.9375 2.4375 C5 3 5 3 7 6 C6.01 6 5.02 6 4 6 C3.67 5.34 3.34 4.68 3 4 C2.01 3.67 1.02 3.34 0 3 C-0.12375 3.639375 -0.2475 4.27875 -0.375 4.9375 C-0.684375 5.9584375 -0.684375 5.9584375 -1 7 C-4.30994713 8.65497356 -7.99123 8.10084335 -11.625 8.0625 C-12.82769531 8.05573242 -12.82769531 8.05573242 -14.0546875 8.04882812 C-16.03649006 8.03703168 -18.01825433 8.01909605 -20 8 C-20.33 7.34 -20.66 6.68 -21 6 C-19.97519531 6.04640625 -18.95039063 6.0928125 -17.89453125 6.140625 C-16.53388344 6.17816011 -15.17320395 6.21455841 -13.8125 6.25 C-13.13896484 6.28351563 -12.46542969 6.31703125 -11.77148438 6.3515625 C-8.10958025 6.42301429 -6.17849378 6.11534178 -3.07421875 4.109375 C-0.9592031 2.17527684 -0.9592031 2.17527684 0 0 Z " fill="#E1AF33" transform="translate(408,249)"/>
<path d="M0 0 C3.875 4.75 3.875 4.75 5 7 C-5.56 7 -16.12 7 -27 7 C-23.14259767 5.07129883 -21.88370357 4.75716624 -17.796875 4.8046875 C-16.8171875 4.81113281 -15.8375 4.81757813 -14.828125 4.82421875 C-13.81234375 4.84097656 -12.7965625 4.85773438 -11.75 4.875 C-10.71875 4.88402344 -9.6875 4.89304687 -8.625 4.90234375 C-6.08309713 4.92587989 -3.5416672 4.95875977 -1 5 C-0.67 3.35 -0.34 1.7 0 0 Z " fill="#F9DCCD" transform="translate(53,334)"/>
<path d="M0 0 C0.99 0 1.98 0 3 0 C3 1.32 3 2.64 3 4 C12.57 4 22.14 4 32 4 C32 4.33 32 4.66 32 5 C20.45 5 8.9 5 -3 5 C-2.01 4.67 -1.02 4.34 0 4 C0 2.68 0 1.36 0 0 Z " fill="#EFAB99" transform="translate(165,326)"/>
<path d="M0 0 C2.64 0 5.28 0 8 0 C8 1.98 8 3.96 8 6 C2.25 6.125 2.25 6.125 0 5 C0 3.35 0 1.7 0 0 Z " fill="#D23F30" transform="translate(148,323)"/>
<path d="M0 0 C1.65 0.33 3.3 0.66 5 1 C5 1.99 5 2.98 5 4 C3.35 4 1.7 4 0 4 C0 12.58 0 21.16 0 30 C-0.33 30 -0.66 30 -1 30 C-1.02896822 25.56251365 -1.04678788 21.12505153 -1.0625 16.6875 C-1.07087891 15.42486328 -1.07925781 14.16222656 -1.08789062 12.86132812 C-1.09111328 11.65283203 -1.09433594 10.44433594 -1.09765625 9.19921875 C-1.10289307 8.08377686 -1.10812988 6.96833496 -1.11352539 5.8190918 C-1 3 -1 3 0 0 Z " fill="#F8CCC1" transform="translate(53,304)"/>
<path d="M0 0 C0.33 0 0.66 0 1 0 C1.3690205 10.55808656 1.3690205 10.55808656 -1 15 C-0.484375 14.67 0.03125 14.34 0.5625 14 C3.78026512 12.67989123 6.5570528 12.86757895 10 13 C7.26295246 15.73704754 4.73955226 16.16182449 1 17 C-0.32 16.67 -1.64 16.34 -3 16 C-2.01 10.72 -1.02 5.44 0 0 Z " fill="#DF622E" transform="translate(410,304)"/>
<path d="M0 0 C0.99 0.33 1.98 0.66 3 1 C2.113125 1.680625 1.22625 2.36125 0.3125 3.0625 C-3.18681015 5.94818705 -5.4434169 9.2746932 -8 13 C-8.33 13 -8.66 13 -9 13 C-8.67 9.7 -8.34 6.4 -8 3 C-7.01 3.33 -6.02 3.66 -5 4 C-4.175 3.34 -3.35 2.68 -2.5 2 C-1.675 1.34 -0.85 0.68 0 0 Z " fill="#F7ECCC" transform="translate(330,248)"/>
<path d="M0 0 C1.32 0.66 2.64 1.32 4 2 C3.67 2.66 3.34 3.32 3 4 C-7.89 4 -18.78 4 -30 4 C-30 3.67 -30 3.34 -30 3 C-29.16227051 2.98018066 -28.32454102 2.96036133 -27.46142578 2.93994141 C-24.35634166 2.86189388 -21.25165461 2.77520365 -18.14697266 2.68261719 C-16.14113029 2.62545964 -14.13501082 2.57831404 -12.12890625 2.53125 C-10.24365234 2.47324219 -10.24365234 2.47324219 -8.3203125 2.4140625 C-7.15773926 2.3826416 -5.99516602 2.3512207 -4.79736328 2.31884766 C-1.86343518 2.27842131 -1.86343518 2.27842131 0 0 Z " fill="#EAB097" transform="translate(90,340)"/>
<path d="M0 0 C1.7325 0.7425 1.7325 0.7425 3.5 1.5 C10.37826237 4.06723877 16.8749654 3.01786209 24 2 C22.37627385 3.95603562 21.49018709 4.91110295 18.94702148 5.37231445 C18.17946533 5.3693335 17.41190918 5.36635254 16.62109375 5.36328125 C15.78255859 5.36263672 14.94402344 5.36199219 14.08007812 5.36132812 C12.77200195 5.3371582 12.77200195 5.3371582 11.4375 5.3125 C10.56158203 5.31572266 9.68566406 5.31894531 8.78320312 5.32226562 C2.26708681 5.26708681 2.26708681 5.26708681 0 3 C0 2.01 0 1.02 0 0 Z " fill="#FDB12E" transform="translate(348,260)"/>
<path d="M0 0 C3.71045247 1.57780923 6.29906384 3.90703248 9.25 6.625 C10.14203125 7.44226563 11.0340625 8.25953125 11.953125 9.1015625 C12.96632813 10.04128906 12.96632813 10.04128906 14 11 C10.88772805 11 8.05847848 10.54372951 5 10 C5 8.68 5 7.36 5 6 C3.35 5.67 1.7 5.34 0 5 C0 3.35 0 1.7 0 0 Z " fill="#FBEEBE" transform="translate(476,216)"/>
<path d="M0 0 C6.24482585 8.13932357 6.24482585 8.13932357 5.6875 12.375 C5.460625 12.91125 5.23375 13.4475 5 14 C4.01 13.01 3.02 12.02 2 11 C1.67 12.32 1.34 13.64 1 15 C-0.00109515 11.68929162 -0.10356134 8.69915231 -0.0625 5.25 C-0.05347656 4.26515625 -0.04445313 3.2803125 -0.03515625 2.265625 C-0.02355469 1.51796875 -0.01195312 0.7703125 0 0 Z " fill="#FBA919" transform="translate(432,280)"/>
<path d="M0 0 C2.97 0.495 2.97 0.495 6 1 C6.33 1.99 6.66 2.98 7 4 C7.99 4.33 8.98 4.66 10 5 C10.6875 7.0625 10.6875 7.0625 11 9 C11.66 9 12.32 9 13 9 C13 9.99 13 10.98 13 12 C13.66 12 14.32 12 15 12 C15 13.65 15 15.3 15 17 C14.484375 16.34 13.96875 15.68 13.4375 15 C9.20098405 9.78582652 4.85089908 4.65686312 0 0 Z " fill="#F7D2CE" transform="translate(439,266)"/>
<path d="M0 0 C1.11375 1.0209375 1.11375 1.0209375 2.25 2.0625 C4.72073138 4.21505694 4.72073138 4.21505694 7.0625 3.9375 C9.28122096 2.86392534 11.09805043 1.56231572 13 0 C13.33 1.32 13.66 2.64 14 4 C13.360625 4.12375 12.72125 4.2475 12.0625 4.375 C11.381875 4.58125 10.70125 4.7875 10 5 C9.67 5.66 9.34 6.32 9 7 C6.36 7 3.72 7 1 7 C0 2.25 0 2.25 0 0 Z " fill="#F4E9C9" transform="translate(490,228)"/>
<path d="M0 0 C1.98 0 3.96 0 6 0 C6 2.33333333 6 4.66666667 6 7 C4.68 6.67 3.36 6.34 2 6 C1.01 9.465 1.01 9.465 0 13 C-0.33 13 -0.66 13 -1 13 C-0.67 8.71 -0.34 4.42 0 0 Z " fill="#B57063" transform="translate(336,212)"/>
<path d="M0 0 C0.33 0.99 0.66 1.98 1 3 C2.65 3.33 4.3 3.66 6 4 C6 4.66 6 5.32 6 6 C6.66 6 7.32 6 8 6 C9.6875 7.8125 9.6875 7.8125 11 10 C10.67 10.99 10.34 11.98 10 13 C8.72486237 11.92173635 7.45507431 10.83714481 6.1875 9.75 C5.47980469 9.14671875 4.77210938 8.5434375 4.04296875 7.921875 C2.08110329 6.07629602 0.54330375 4.20054668 -1 2 C-0.67 1.34 -0.34 0.68 0 0 Z " fill="#F1C029" transform="translate(468,204)"/>
<path d="M0 0 C0.33 0 0.66 0 1 0 C1 5.61 1 11.22 1 17 C-2.03417669 12.95443108 -2.40526243 11.99159125 -2.6875 7.25 C-2.75324219 6.26515625 -2.81898438 5.2803125 -2.88671875 4.265625 C-2.92410156 3.51796875 -2.96148437 2.7703125 -3 2 C-2.34 2 -1.68 2 -1 2 C-0.67 1.34 -0.34 0.68 0 0 Z " fill="#47282B" transform="translate(335,202)"/>
<path d="M0 0 C0.33 0.66 0.66 1.32 1 2 C0.67 2.66 0.34 3.32 0 4 C8.91 4 17.82 4 27 4 C27 4.33 27 4.66 27 5 C17.1 5 7.2 5 -3 5 C-1 1 -1 1 0 0 Z " fill="#F8E0CC" transform="translate(95,336)"/>
<path d="M0 0 C3 3.75 3 3.75 3 6 C2.0409375 6.37125 2.0409375 6.37125 1.0625 6.75 C0.0415625 7.36875 0.0415625 7.36875 -1 8 C-1.2165625 8.8971875 -1.2165625 8.8971875 -1.4375 9.8125 C-2.28708366 13.11643647 -4.54812874 14.73673422 -7 17 C-5.68672877 12.75712371 -4.01756105 8.95105707 -2 5 C-1.31471955 3.34089996 -0.64108137 1.67667436 0 0 Z " fill="#E1DEE1" transform="translate(589,253)"/>
<path d="M0 0 C0.99 0 1.98 0 3 0 C3 3.96 3 7.92 3 12 C2.01 12 1.02 12 0 12 C0 8.04 0 4.08 0 0 Z " fill="#CF3F31" transform="translate(128,319)"/>
<path d="M0 0 C0.33 0 0.66 0 1 0 C1.19532961 1.7699868 1.38098882 3.54104279 1.5625 5.3125 C1.66691406 6.29863281 1.77132812 7.28476562 1.87890625 8.30078125 C2 11 2 11 1 14 C0.01 14 -0.98 14 -2 14 C-2.21192221 8.80790596 -1.5912689 4.873261 0 0 Z " fill="#7DA6A7" transform="translate(58,290)"/>
<path d="M0 0 C0.66 0.33 1.32 0.66 2 1 C5.02492102 0.83073547 7.99251474 0.38667668 11 0 C10.34 4.29 9.68 8.58 9 13 C8.67 13 8.34 13 8 13 C7.92377142 9.03611362 8.0318352 5.8726592 9 2 C5.7 2.33 2.4 2.66 -1 3 C-0.67 2.01 -0.34 1.02 0 0 Z " fill="#E6AC3E" transform="translate(337,245)"/>
<path d="M0 0 C1.65 0.33 3.3 0.66 5 1 C4.47731534 3.76276177 3.89130413 6.3260876 3 9 C2.01 9 1.02 9 0 9 C0 8.34 0 7.68 0 7 C0.66 7 1.32 7 2 7 C2 6.34 2 5.68 2 5 C1.01 5 0.02 5 -1 5 C-0.67 3.35 -0.34 1.7 0 0 Z " fill="#C5746A" transform="translate(356,209)"/>
<path d="M0 0 C4.67105792 1.55701931 8.08705685 4.08447373 12 7 C10 8 10 8 8.0625 7.5 C5.82334576 6.76397597 5.82334576 6.76397597 3 8 C3 6.35 3 4.7 3 3 C2.01 2.67 1.02 2.34 0 2 C0 1.34 0 0.68 0 0 Z " fill="#BF4336" transform="translate(432,263)"/>
<path d="M0 0 C0.66 0.99 1.32 1.98 2 3 C5.55672179 4.2188121 5.55672179 4.2188121 9 5 C9.33 8.63 9.66 12.26 10 16 C8.35649921 12.71299843 7.58678331 10.52069985 7 7 C2.545 6.01 2.545 6.01 -2 5 C-1.34 3.35 -0.68 1.7 0 0 Z " fill="#DEB946" transform="translate(322,260)"/>
<path d="M0 0 C0.66 0.66 1.32 1.32 2 2 C1.67 2.66 1.34 3.32 1 4 C-2 3 -2 3 -5 1 C-5.268125 1.78375 -5.53625 2.5675 -5.8125 3.375 C-7 6 -7 6 -10 8 C-10.25 5.6875 -10.25 5.6875 -10 3 C-7.02962719 -0.31310814 -4.3003147 -0.46742551 0 0 Z " fill="#2D1B1E" transform="translate(388,168)"/>
<path d="M0 0 C0.99 0.495 0.99 0.495 2 1 C2 1.66 2 2.32 2 3 C2.66 3 3.32 3 4 3 C5.33928571 11.03571429 5.33928571 11.03571429 3 15 C2.49564306 13.0636296 1.99666126 11.12585854 1.5 9.1875 C1.2215625 8.10855469 0.943125 7.02960938 0.65625 5.91796875 C0 3 0 3 0 0 Z " fill="#867879" transform="translate(329,277)"/>
<path d="M0 0 C0.66 0.33 1.32 0.66 2 1 C1.34 2.98 0.68 4.96 0 7 C-2.475 6.01 -2.475 6.01 -5 5 C-5.33 5.66 -5.66 6.32 -6 7 C-6.33 5.68 -6.66 4.36 -7 3 C-4.69631264 1.93347808 -2.35981813 0.93578995 0 0 Z " fill="#E3E7E8" transform="translate(63,271)"/>
<path d="M0 0 C-2.88035092 2.24027294 -5.84866512 4.16172132 -9 6 C-9.66 5.01 -10.32 4.02 -11 3 C-7.46647659 -0.87004945 -5.02196482 -1.22155901 0 0 Z " fill="#F6F0E3" transform="translate(498,235)"/>
<path d="M0 0 C0.99 0.33 1.98 0.66 3 1 C4.62567079 1.14715199 6.25586857 1.24721867 7.88671875 1.31640625 C8.82451172 1.35830078 9.76230469 1.40019531 10.72851562 1.44335938 C11.70498047 1.48267578 12.68144531 1.52199219 13.6875 1.5625 C15.16959961 1.62727539 15.16959961 1.62727539 16.68164062 1.69335938 C19.12095546 1.79941654 21.56037113 1.90147714 24 2 C24 2.33 24 2.66 24 3 C16.08 3.33 8.16 3.66 0 4 C0 2.68 0 1.36 0 0 Z " fill="#EFDFDD" transform="translate(157,336)"/>
<path d="M0 0 C2 2 2 2 3 4 C2.06553465 6.03144641 1.06775224 8.03533587 0 10 C-0.33 9.34 -0.66 8.68 -1 8 C-1.99 8.33 -2.98 8.66 -4 9 C-2.94124926 5.59687262 -1.99097846 2.98646769 0 0 Z " fill="#34393F" transform="translate(569,286)"/>
<path d="M0 0 C1.65 0 3.3 0 5 0 C4.34 1.98 3.68 3.96 3 6 C2.01 5.67 1.02 5.34 0 5 C-0.33 6.98 -0.66 8.96 -1 11 C-2.39160413 6.82518761 -1.36588972 4.09766916 0 0 Z " fill="#454850" transform="translate(576,257)"/>
<path d="M0 0 C2.475 0.495 2.475 0.495 5 1 C5 1.99 5 2.98 5 4 C5.9590625 4.2165625 5.9590625 4.2165625 6.9375 4.4375 C9 5 9 5 10 6 C10.66 5.67 11.32 5.34 12 5 C12 5.99 12 6.98 12 8 C9.9375 8.4375 9.9375 8.4375 7 8 C4.4001393 5.90507092 2.13481125 3.56546482 0 1 C0 0.67 0 0.34 0 0 Z " fill="#F6E0BE" transform="translate(412,251)"/>
<path d="M0 0 C1.65 0 3.3 0 5 0 C5 1.65 5 3.3 5 5 C3.35 5.33 1.7 5.66 0 6 C0 4.02 0 2.04 0 0 Z " fill="#F2A621" transform="translate(176,311)"/>
<path d="M0 0 C1.65 0 3.3 0 5 0 C5.66 1.32 6.32 2.64 7 4 C5.02 4.99 5.02 4.99 3 6 C1.5 4.6875 1.5 4.6875 0 3 C0 2.01 0 1.02 0 0 Z " fill="#787984" transform="translate(277,300)"/>
<path d="M0 0 C0.99 1.32 1.98 2.64 3 4 C2.01 6.31 1.02 8.62 0 11 C-0.66 11 -1.32 11 -2 11 C-2.19622241 6.78121808 -1.80230168 3.82989106 0 0 Z " fill="#D0E7EB" transform="translate(84,270)"/>
<path d="M0 0 C0 0.33 0 0.66 0 1 C-1.98 1 -3.96 1 -6 1 C-6.268125 1.61875 -6.53625 2.2375 -6.8125 2.875 C-8 5 -8 5 -11 7 C-13.1875 6.625 -13.1875 6.625 -15 6 C-9.96191995 1.60313014 -6.79670193 -0.84958774 0 0 Z " fill="#FAAF22" transform="translate(387,254)"/>
<path d="M0 0 C0.99 0.99 1.98 1.98 3 3 C1.75 5.5 1.75 5.5 0 8 C-1.32 8 -2.64 8 -4 8 C-3.34 6.02 -2.68 4.04 -2 2 C-1.34 2 -0.68 2 0 2 C0 1.34 0 0.68 0 0 Z " fill="#3C3F48" transform="translate(583,259)"/>
<path d="M0 0 C0.33 0 0.66 0 1 0 C1 2.97 1 5.94 1 9 C1.66 9 2.32 9 3 9 C3 8.34 3 7.68 3 7 C4.32 7.66 5.64 8.32 7 9 C6.34 10.32 5.68 11.64 5 13 C4.01 12.67 3.02 12.34 2 12 C2.66 12 3.32 12 4 12 C4 11.34 4 10.68 4 10 C2.68 10 1.36 10 0 10 C0 6.7 0 3.4 0 0 Z " fill="#F6E0CD" transform="translate(194,309)"/>
<path d="M0 0 C2.31 0.66 4.62 1.32 7 2 C7 2.99 7 3.98 7 5 C3.7 5 0.4 5 -3 5 C-2.34 4.67 -1.68 4.34 -1 4 C-0.34786708 1.97536745 -0.34786708 1.97536745 0 0 Z " fill="#4D212A" transform="translate(347,238)"/>
<path d="M0 0 C-0.33 2.64 -0.66 5.28 -1 8 C-1.99 8 -2.98 8 -4 8 C-4.33 5.69 -4.66 3.38 -5 1 C-2 0 -2 0 0 0 Z " fill="#8C4537" transform="translate(130,332)"/>
<path d="M0 0 C3.42931954 3.7559214 4.56429083 8.23466745 6 13 C5.01 12.67 4.02 12.34 3 12 C2.67 10.02 2.34 8.04 2 6 C1.34 6 0.68 6 0 6 C0 4.02 0 2.04 0 0 Z " fill="#E5612F" transform="translate(417,304)"/>
<path d="M0 0 C2.74277578 3.19990508 4.6302836 6.00499382 6 10 C5.01 9.67 4.02 9.34 3 9 C3 8.34 3 7.68 3 7 C2.01 7.33 1.02 7.66 0 8 C0 5.36 0 2.72 0 0 Z " fill="#DD692B" transform="translate(411,294)"/>
<path d="M0 0 C2.97 1.98 2.97 1.98 6 4 C5.01 5.485 5.01 5.485 4 7 C2.68 6.67 1.36 6.34 0 6 C-1.125 2.25 -1.125 2.25 0 0 Z " fill="#4B4950" transform="translate(552,226)"/>
<path d="M0 0 C0.33 0.66 0.66 1.32 1 2 C0.34 2 -0.32 2 -1 2 C-1.33 4.97 -1.66 7.94 -2 11 C-2.66 11 -3.32 11 -4 11 C-4.6875 9.375 -4.6875 9.375 -5 7 C-2.66666667 1.33333333 -2.66666667 1.33333333 0 0 Z " fill="#52251C" transform="translate(378,221)"/>
<path d="M0 0 C4.24822374 0.47202486 6.19989709 2.96655518 9 6 C5.97653399 6.2519555 4.3597993 6.20421041 1.6875 4.6875 C1.130625 4.130625 0.57375 3.57375 0 3 C0 2.01 0 1.02 0 0 Z " fill="#463922" transform="translate(505,191)"/>
<path d="M0 0 C0.33 0.99 0.66 1.98 1 3 C0 4 0 4 -3.0625 4.0625 C-4.031875 4.041875 -5.00125 4.02125 -6 4 C-5.67 5.65 -5.34 7.3 -5 9 C-5.99 9.495 -5.99 9.495 -7 10 C-7.66 8.02 -8.32 6.04 -9 4 C-8 3 -8 3 -4.5 2.5625 C-2.7675 2.2840625 -2.7675 2.2840625 -1 2 C-0.67 1.34 -0.34 0.68 0 0 Z " fill="#D5C3C3" transform="translate(395,182)"/>
<path d="M0 0 C2 3 2 3 1.625 5.6875 C1.41875 6.450625 1.2125 7.21375 1 8 C0.01 8 -0.98 8 -2 8 C-2.33 7.01 -2.66 6.02 -3 5 C-1.5625 2.3125 -1.5625 2.3125 0 0 Z " fill="#3A3C43" transform="translate(546,320)"/>
<path d="M0 0 C0.99 0 1.98 0 3 0 C2.46930939 3.82097239 1.50298434 6.06171403 -1 9 C-1.80967438 6.08517222 -2.21845993 4.53886783 -1.0625 1.6875 C-0.711875 1.130625 -0.36125 0.57375 0 0 Z " fill="#454C56" transform="translate(562,302)"/>
<path d="M0 0 C0.33 0.99 0.66 1.98 1 3 C1.99 3.33 2.98 3.66 4 4 C5.25 5.8125 5.25 5.8125 6 8 C5.546875 10.13671875 5.546875 10.13671875 5 12 C3.96951963 10.3811004 2.95085322 8.75467511 1.9375 7.125 C1.36902344 6.22007812 0.80054688 5.31515625 0.21484375 4.3828125 C-0.18605469 3.59648437 -0.58695312 2.81015625 -1 2 C-0.67 1.34 -0.34 0.68 0 0 Z " fill="#E06528" transform="translate(424,262)"/>
<path d="M0 0 C-1.98 0.99 -1.98 0.99 -4 2 C-4 2.66 -4 3.32 -4 4 C-6.64 4.33 -9.28 4.66 -12 5 C-12 4.34 -12 3.68 -12 3 C-10.02 3 -8.04 3 -6 3 C-6 2.01 -6 1.02 -6 0 C-2.25 -1.125 -2.25 -1.125 0 0 Z " fill="#F69C61" transform="translate(376,258)"/>
<path d="M0 0 C0.99 0.33 1.98 0.66 3 1 C3 1.99 3 2.98 3 4 C3.66 4.33 4.32 4.66 5 5 C4.34 8.3 3.68 11.6 3 15 C2.67 15 2.34 15 2 15 C1.93941406 14.25234375 1.87882812 13.5046875 1.81640625 12.734375 C1.73261719 11.74953125 1.64882812 10.7646875 1.5625 9.75 C1.48128906 8.77546875 1.40007812 7.8009375 1.31640625 6.796875 C1.04925416 4.43538247 0.64628032 2.28098935 0 0 Z " fill="#DCEBED" transform="translate(83,254)"/>
<path d="M0 0 C0.33 0.66 0.66 1.32 1 2 C1.99 2.33 2.98 2.66 4 3 C4 3.66 4 4.32 4 5 C2.35 5 0.7 5 -1 5 C-1 4.34 -1 3.68 -1 3 C-3.64 3 -6.28 3 -9 3 C-9 2.67 -9 2.34 -9 2 C-6.03 2 -3.06 2 0 2 C0 1.34 0 0.68 0 0 Z " fill="#DBA999" transform="translate(189,339)"/>
<path d="M0 0 C0.66 0 1.32 0 2 0 C2.185625 1.7015625 2.185625 1.7015625 2.375 3.4375 C2.684375 5.2009375 2.684375 5.2009375 3 7 C3.66 7.33 4.32 7.66 5 8 C3.35 8 1.7 8 0 8 C0 5.36 0 2.72 0 0 Z " fill="#8C544B" transform="translate(123,333)"/>
<path d="M0 0 C0.66 0.33 1.32 0.66 2 1 C1.34 3.64 0.68 6.28 0 9 C-1.32 8.67 -2.64 8.34 -4 8 C-2.68 5.36 -1.36 2.72 0 0 Z " fill="#E2E6EC" transform="translate(563,307)"/>
<path d="M0 0 C3.875 0.875 3.875 0.875 5 2 C5.04063832 3.66617115 5.042721 5.33388095 5 7 C1.60085025 5.86695008 0.94745549 4.87481525 -1 2 C-0.67 1.34 -0.34 0.68 0 0 Z " fill="#353235" transform="translate(584,250)"/>
<path d="M0 0 C0.66 0 1.32 0 2 0 C6 4.47058824 6 4.47058824 6 7 C6.66 7 7.32 7 8 7 C7.67 7.66 7.34 8.32 7 9 C4.36 6.69 1.72 4.38 -1 2 C-0.67 1.34 -0.34 0.68 0 0 Z " fill="#EDC330" transform="translate(480,216)"/>
<path d="M0 0 C3.3 0 6.6 0 10 0 C9.67 0.99 9.34 1.98 9 3 C6.03 2.67 3.06 2.34 0 2 C0 1.34 0 0.68 0 0 Z " fill="#F2D1A7" transform="translate(394,341)"/>
<path d="M0 0 C0.99 0 1.98 0 3 0 C3.75 1.75 3.75 1.75 4 4 C2.3125 6.3125 2.3125 6.3125 0 8 C-2.25 7.75 -2.25 7.75 -4 7 C-3.01 7 -2.02 7 -1 7 C-0.67 4.69 -0.34 2.38 0 0 Z " fill="#D85D47" transform="translate(92,332)"/>
<path d="M0 0 C0.33 0.66 0.66 1.32 1 2 C1.66 2.33 2.32 2.66 3 3 C3.625 5.0625 3.625 5.0625 4 7 C2.35 7 0.7 7 -1 7 C-0.67 4.69 -0.34 2.38 0 0 Z " fill="#E5DBDB" transform="translate(92,301)"/>
<path d="M0 0 C0.99 0 1.98 0 3 0 C2.34 1.98 1.68 3.96 1 6 C0.01 6 -0.98 6 -2 6 C-2 6.66 -2 7.32 -2 8 C-2.66 8 -3.32 8 -4 8 C-3.67 6.35 -3.34 4.7 -3 3 C-2.01 2.67 -1.02 2.34 0 2 C0 1.34 0 0.68 0 0 Z " fill="#383D41" transform="translate(564,285)"/>
<path d="M0 0 C0.66 0.66 1.32 1.32 2 2 C1.21718695 3.33855056 0.42348123 4.67073644 -0.375 6 C-0.81585938 6.7425 -1.25671875 7.485 -1.7109375 8.25 C-2.13632813 8.8275 -2.56171875 9.405 -3 10 C-3.66 10 -4.32 10 -5 10 C-4.38545304 6.00544473 -2.29353263 3.25533664 0 0 Z " fill="#D9ECED" transform="translate(69,260)"/>
<path d="M0 0 C2.475 0.99 2.475 0.99 5 2 C4.360625 2.2475 3.72125 2.495 3.0625 2.75 C0.81258459 3.81562433 0.81258459 3.81562433 0.25 6.125 C0.1675 6.74375 0.085 7.3625 0 8 C-0.33 8 -0.66 8 -1 8 C-1.04241723 5.66705225 -1.04092937 3.33297433 -1 1 C-0.67 0.67 -0.34 0.34 0 0 Z " fill="#F4E6D8" transform="translate(510,199)"/>
<path d="M0 0 C1.65 0.33 3.3 0.66 5 1 C3.68 1.33 2.36 1.66 1 2 C0.67 3.65 0.34 5.3 0 7 C-1.65 6.67 -3.3 6.34 -5 6 C-3.35 4.02 -1.7 2.04 0 0 Z " fill="#DDAF53" transform="translate(504,185)"/>
<path d="M0 0 C0.66 0.33 1.32 0.66 2 1 C-0.80804268 3.96404505 -3.18315774 6.44499019 -7 8 C-5.50902342 4.2047869 -3.24299151 2.38957269 0 0 Z " fill="#F4C346" transform="translate(333,248)"/>
<path d="M0 0 C0.66 0 1.32 0 2 0 C2 0.66 2 1.32 2 2 C2.99 2.33 3.98 2.66 5 3 C4.67 4.65 4.34 6.3 4 8 C1 6 1 6 0.3125 2.875 C0.209375 1.92625 0.10625 0.9775 0 0 Z " fill="#E9DDCE" transform="translate(513,190)"/>
<path d="M0 0 C0.99 0 1.98 0 3 0 C3 2.31 3 4.62 3 7 C2.01 7 1.02 7 0 7 C0 4.69 0 2.38 0 0 Z " fill="#894037" transform="translate(145,333)"/>
<path d="M0 0 C0.66 0.33 1.32 0.66 2 1 C1.67 1.99 1.34 2.98 1 4 C1.99 4 2.98 4 4 4 C4 4.66 4 5.32 4 6 C1.36 6 -1.28 6 -4 6 C-4.33 5.34 -4.66 4.68 -5 4 C-3.68 4 -2.36 4 -1 4 C-0.67 2.68 -0.34 1.36 0 0 Z " fill="#F7EBE4" transform="translate(128,312)"/>
<path d="M0 0 C2 2 2 2 2 5 C2.66 5 3.32 5 4 5 C4 7.64 4 10.28 4 13 C1.68917959 8.54341778 0 5.09639729 0 0 Z " fill="#DAB03A" transform="translate(339,303)"/>
<path d="M0 0 C0.99 0 1.98 0 3 0 C3 1.65 3 3.3 3 5 C3.66 5 4.32 5 5 5 C4.67 5.99 4.34 6.98 4 8 C2 6.25 2 6.25 0 4 C0 2.68 0 1.36 0 0 Z " fill="#E55E3B" transform="translate(441,296)"/>
<path d="M0 0 C1.46726798 3.81489674 0.43336419 6.29011622 -1 10 C-1.99 10 -2.98 10 -4 10 C-2.8905928 6.51329166 -1.73662334 3.22515763 0 0 Z " fill="#D9DBE0" transform="translate(574,284)"/>
<path d="M0 0 C-0.33 1.32 -0.66 2.64 -1 4 C-1.66 4 -2.32 4 -3 4 C-3.33 5.65 -3.66 7.3 -4 9 C-4.93423645 5.98968256 -5.04449911 5.13349732 -4 2 C-4.66 1.67 -5.32 1.34 -6 1 C-3.92446352 0.4465236 -2.15634036 0 0 0 Z " fill="#E4985E" transform="translate(352,243)"/>
<path d="M0 0 C1.32 0.99 2.64 1.98 4 3 C3.67 4.32 3.34 5.64 3 7 C1.2925002 5.71937515 -0.37373596 4.38232443 -2 3 C-2 2.34 -2 1.68 -2 1 C-1.34 0.67 -0.68 0.34 0 0 Z " fill="#DA4128" transform="translate(431,263)"/>
<path d="M0 0 C0.0825 0.61875 0.165 1.2375 0.25 1.875 C0.81258459 4.18437567 0.81258459 4.18437567 3.0625 5.25 C3.701875 5.4975 4.34125 5.745 5 6 C4.01 6 3.02 6 2 6 C1.67 6.66 1.34 7.32 1 8 C-0.32 7.01 -1.64 6.02 -3 5 C-2.34 4.67 -1.68 4.34 -1 4 C-0.34786708 1.97536745 -0.34786708 1.97536745 0 0 Z " fill="#B35A5F" transform="translate(377,172)"/>
<path d="M0 0 C1.65 0.33 3.3 0.66 5 1 C5 1.99 5 2.98 5 4 C3.02 4 1.04 4 -1 4 C-0.67 2.68 -0.34 1.36 0 0 Z " fill="#E9DFD5" transform="translate(53,304)"/>
<path d="M0 0 C1.9375 0.5625 1.9375 0.5625 4 2 C4.75 5.625 4.75 5.625 5 9 C1.13892543 6.42595029 1.05680308 4.38979741 0 0 Z " fill="#E5652C" transform="translate(436,287)"/>
<path d="M0 0 C1.37562854 1.28965176 2.70766393 2.62689293 4 4 C4 4.66 4 5.32 4 6 C3.01 6 2.02 6 1 6 C0.67 6.66 0.34 7.32 0 8 C0 5.36 0 2.72 0 0 Z " fill="#618B89" transform="translate(75,242)"/>
<path d="M0 0 C1.32 0.99 2.64 1.98 4 3 C3.67 4.32 3.34 5.64 3 7 C2.01 6.67 1.02 6.34 0 6 C0 4.02 0 2.04 0 0 Z " fill="#FCEED2" transform="translate(490,228)"/>
<path d="M0 0 C2.16874252 0.50603992 3.99967627 0.99983813 6 2 C5.67 2.99 5.34 3.98 5 5 C4.01 5 3.02 5 2 5 C1.34 4.34 0.68 3.68 0 3 C0 2.01 0 1.02 0 0 Z " fill="#FEF8EA" transform="translate(484,226)"/>
<path d="M0 0 C1.32 0.33 2.64 0.66 4 1 C3.01 1.33 2.02 1.66 1 2 C1 3.32 1 4.64 1 6 C0.01 6 -0.98 6 -2 6 C-1.49396008 3.83125748 -1.00016187 2.00032373 0 0 Z " fill="#FBF1E7" transform="translate(164,324)"/>
<path d="M0 0 C0.99 0.33 1.98 0.66 3 1 C3 5 3 5 1 8 C0.34 7.34 -0.32 6.68 -1 6 C-0.625 2.875 -0.625 2.875 0 0 Z " fill="#4F525A" transform="translate(547,316)"/>
<path d="M0 0 C0.99 0 1.98 0 3 0 C2.34 2.31 1.68 4.62 1 7 C0.34 6.67 -0.32 6.34 -1 6 C-1.042721 4.33388095 -1.04063832 2.66617115 -1 1 C-0.67 0.67 -0.34 0.34 0 0 Z " fill="#ECEAEE" transform="translate(549,306)"/>
<path d="M0 0 C0.99 0 1.98 0 3 0 C3 2.64 3 5.28 3 8 C2.67 7.01 2.34 6.02 2 5 C1.34 5 0.68 5 0 5 C0 3.35 0 1.7 0 0 Z " fill="#8A8062" transform="translate(333,288)"/>
<path d="M0 0 C1.65 0.33 3.3 0.66 5 1 C4.01 2.32 3.02 3.64 2 5 C0.68 4.67 -0.64 4.34 -2 4 C-1.34 2.68 -0.68 1.36 0 0 Z " fill="#ECC43A" transform="translate(496,228)"/>
<path d="M0 0 C1.98 0 3.96 0 6 0 C6 1.66666667 6 3.33333333 6 5 C2.83884224 3.63016497 2.0072908 3.0109362 0 0 Z " fill="#3D3D40" transform="translate(529,212)"/>
<path d="M0 0 C1.32 0.33 2.64 0.66 4 1 C4 3.64 4 6.28 4 9 C2.47700477 6.06279492 1.19899698 3.0831351 0 0 Z " fill="#808181" transform="translate(325,267)"/>
<path d="M0 0 C2.35953094 2.35953094 2.49141413 3.77895617 3 7 C1.02 5.35 -0.96 3.7 -3 2 C-2.01 1.34 -1.02 0.68 0 0 Z " fill="#F2BE2F" transform="translate(491,224)"/>
<path d="M0 0 C0.33 0.99 0.66 1.98 1 3 C1.99 3 2.98 3 4 3 C4.33 4.65 4.66 6.3 5 8 C3.02 6.35 1.04 4.7 -1 3 C-0.67 2.01 -0.34 1.02 0 0 Z " fill="#F2BC3B" transform="translate(468,204)"/>
</svg>
